<svg xmlns="http://www.w3.org/2000/svg" width="16" height="20" fill="none" viewBox="0 0 16 20"><path fill="#2E2E2E" d="M5 3.0005C4.73478 3.0005 4.48043 3.10585 4.29289 3.29339C4.10536 3.48093 4 3.73528 4 4.0005C4 4.26571 4.10536 4.52007 4.29289 4.7076C4.48043 4.89514 4.73478 5.0005 5 5.0005C5.26522 5.0005 5.51957 4.89514 5.70711 4.7076C5.89464 4.52007 6 4.26571 6 4.0005C6 3.73528 5.89464 3.48093 5.70711 3.29339C5.51957 3.10585 5.26522 3.0005 5 3.0005ZM2.17 3.0005C2.3766 2.41496 2.75974 1.90793 3.2666 1.54929C3.77346 1.19064 4.37909 0.998047 5 0.998047C5.62091 0.998047 6.22654 1.19064 6.7334 1.54929C7.24026 1.90793 7.6234 2.41496 7.83 3.0005H15C15.2652 3.0005 15.5196 3.10585 15.7071 3.29339C15.8946 3.48093 16 3.73528 16 4.0005C16 4.26571 15.8946 4.52007 15.7071 4.7076C15.5196 4.89514 15.2652 5.0005 15 5.0005H7.83C7.6234 5.58603 7.24026 6.09306 6.7334 6.45171C6.22654 6.81035 5.62091 7.00295 5 7.00295C4.37909 7.00295 3.77346 6.81035 3.2666 6.45171C2.75974 6.09306 2.3766 5.58603 2.17 5.0005H1C0.734784 5.0005 0.48043 4.89514 0.292893 4.7076C0.105357 4.52007 0 4.26571 0 4.0005C0 3.73528 0.105357 3.48093 0.292893 3.29339C0.48043 3.10585 0.734784 3.0005 1 3.0005H2.17ZM11 9.0005C10.7348 9.0005 10.4804 9.10585 10.2929 9.29339C10.1054 9.48093 10 9.73528 10 10.0005C10 10.2657 10.1054 10.5201 10.2929 10.7076C10.4804 10.8951 10.7348 11.0005 11 11.0005C11.2652 11.0005 11.5196 10.8951 11.7071 10.7076C11.8946 10.5201 12 10.2657 12 10.0005C12 9.73528 11.8946 9.48093 11.7071 9.29339C11.5196 9.10585 11.2652 9.0005 11 9.0005ZM8.17 9.0005C8.3766 8.41496 8.75974 7.90793 9.2666 7.54929C9.77346 7.19064 10.3791 6.99805 11 6.99805C11.6209 6.99805 12.2265 7.19064 12.7334 7.54929C13.2403 7.90793 13.6234 8.41496 13.83 9.0005H15C15.2652 9.0005 15.5196 9.10585 15.7071 9.29339C15.8946 9.48093 16 9.73528 16 10.0005C16 10.2657 15.8946 10.5201 15.7071 10.7076C15.5196 10.8951 15.2652 11.0005 15 11.0005H13.83C13.6234 11.586 13.2403 12.0931 12.7334 12.4517C12.2265 12.8104 11.6209 13.0029 11 13.0029C10.3791 13.0029 9.77346 12.8104 9.2666 12.4517C8.75974 12.0931 8.3766 11.586 8.17 11.0005H1C0.734784 11.0005 0.48043 10.8951 0.292893 10.7076C0.105357 10.5201 0 10.2657 0 10.0005C0 9.73528 0.105357 9.48093 0.292893 9.29339C0.48043 9.10585 0.734784 9.0005 1 9.0005H8.17ZM5 15.0005C4.73478 15.0005 4.48043 15.1059 4.29289 15.2934C4.10536 15.4809 4 15.7353 4 16.0005C4 16.2657 4.10536 16.5201 4.29289 16.7076C4.48043 16.8951 4.73478 17.0005 5 17.0005C5.26522 17.0005 5.51957 16.8951 5.70711 16.7076C5.89464 16.5201 6 16.2657 6 16.0005C6 15.7353 5.89464 15.4809 5.70711 15.2934C5.51957 15.1059 5.26522 15.0005 5 15.0005ZM2.17 15.0005C2.3766 14.415 2.75974 13.9079 3.2666 13.5493C3.77346 13.1906 4.37909 12.998 5 12.998C5.62091 12.998 6.22654 13.1906 6.7334 13.5493C7.24026 13.9079 7.6234 14.415 7.83 15.0005H15C15.2652 15.0005 15.5196 15.1059 15.7071 15.2934C15.8946 15.4809 16 15.7353 16 16.0005C16 16.2657 15.8946 16.5201 15.7071 16.7076C15.5196 16.8951 15.2652 17.0005 15 17.0005H7.83C7.6234 17.586 7.24026 18.0931 6.7334 18.4517C6.22654 18.8104 5.62091 19.0029 5 19.0029C4.37909 19.0029 3.77346 18.8104 3.2666 18.4517C2.75974 18.0931 2.3766 17.586 2.17 17.0005H1C0.734784 17.0005 0.48043 16.8951 0.292893 16.7076C0.105357 16.5201 0 16.2657 0 16.0005C0 15.7353 0.105357 15.4809 0.292893 15.2934C0.48043 15.1059 0.734784 15.0005 1 15.0005H2.17Z"/></svg>