<svg xmlns="http://www.w3.org/2000/svg" width="42" height="37" fill="none" viewBox="0 0 42 37"><path fill="#758650" d="M13.6998 0.500789C16.0598 0.160789 18.5598 2.74079 19.2798 6.30079C19.9998 9.84079 18.6998 13.0008 16.3398 13.3608C13.9998 13.7208 11.4798 11.1408 10.7398 7.58079C9.99981 4.04079 11.3398 0.880789 13.6998 0.500789ZM27.9998 0.500789C30.3798 0.880789 31.6998 4.04079 30.9998 7.58079C30.2398 11.1408 27.7398 13.7208 25.3798 13.3608C22.9998 13.0008 21.6998 9.84079 22.4398 6.30079C23.1598 2.74079 25.6598 0.160789 27.9998 0.500789ZM2.99981 9.70079C5.27981 8.72079 8.37981 10.5008 9.99981 13.6008C11.5198 16.7608 10.9998 20.0808 8.73981 21.0608C6.47981 22.0408 3.39981 20.2808 1.81981 17.1408C0.239813 14.0008 0.799813 10.6608 2.99981 9.70079ZM38.9998 9.70079C41.1998 10.6608 41.7598 14.0008 40.1798 17.1408C38.5998 20.2808 35.5198 22.0408 33.2598 21.0608C30.9998 20.0808 30.4798 16.7608 31.9998 13.6008C33.6198 10.5008 36.7198 8.72079 38.9998 9.70079ZM35.6598 31.2608C35.7398 33.1408 34.2998 35.2208 32.5798 36.0008C28.9998 37.6408 24.7598 34.2408 20.7798 34.2408C16.7998 34.2408 12.5198 37.7808 8.99981 36.0008C6.99981 35.0208 5.61981 32.4208 5.87981 30.2608C6.23981 27.2808 9.81981 25.6808 11.9398 23.5008C14.7598 20.6808 16.7598 15.3808 20.7798 15.3808C24.7798 15.3808 26.8998 20.6008 29.5998 23.5008C31.8198 25.9408 35.5198 28.0008 35.6598 31.2608Z"/></svg>