<svg width="24" height="24" viewBox="0 0 24 24" fill="none" xmlns="http://www.w3.org/2000/svg">
<g clip-path="url(#clip0_1278_6081)">
<path d="M5.3102 12.346L16.4562 22.966C16.6422 23.1433 16.8893 23.2422 17.1462 23.2422C17.4031 23.2422 17.6502 23.1433 17.8362 22.966L17.8482 22.954C17.9387 22.8681 18.0107 22.7646 18.0599 22.6499C18.1092 22.5353 18.1346 22.4118 18.1346 22.287C18.1346 22.1622 18.1092 22.0387 18.0599 21.9241C18.0107 21.8094 17.9387 21.7059 17.8482 21.62L7.3522 11.62L17.8482 1.624C17.9387 1.53805 18.0107 1.4346 18.0599 1.31993C18.1092 1.20527 18.1346 1.08179 18.1346 0.956999C18.1346 0.832212 18.1092 0.708731 18.0599 0.594065C18.0107 0.479399 17.9387 0.375944 17.8482 0.289999L17.8362 0.277998C17.6502 0.100708 17.4031 0.00180626 17.1462 0.00180626C16.8893 0.00180626 16.6422 0.100708 16.4562 0.277998L5.3102 10.898C5.21218 10.9914 5.13414 11.1037 5.08082 11.2282C5.02749 11.3526 5 11.4866 5 11.622C5 11.7574 5.02749 11.8914 5.08082 12.0158C5.13414 12.1403 5.21218 12.2526 5.3102 12.346Z" fill="#2E2E2E"/>
</g>
<defs>
<clipPath id="clip0_1278_6081">
<rect y="24" width="24" height="24" rx="12" transform="rotate(-90 0 24)" fill="white"/>
</clipPath>
</defs>
</svg>
