<svg xmlns="http://www.w3.org/2000/svg" width="32" height="32" fill="none" viewBox="0 0 32 32"><path fill="#2E2E2E" d="M2.002 4.2165C4.82005 3.87854 7.5874 3.49812 10.367 3.22563C13.1428 2.95403 15.9308 2.95403 18.7197 3.08673C21.5434 3.22032 24.3286 3.63525 27.1203 4.0139C27.7221 4.09529 28.3304 4.13953 28.9884 4.20588V4.58099C28.9884 8.02602 29.0184 11.471 28.9818 14.9152C28.9199 20.633 25.8099 27.3647 17.1333 29.7737C15.9251 30.109 14.8296 30.0595 13.6572 29.7056C10.2778 28.6847 7.38745 27.009 5.24153 24.3001C3.50208 22.1034 2.50985 19.6165 2.14469 16.9084C2.04424 16.1662 2.01139 15.4124 2.00857 14.663C1.99449 11.318 2.002 7.97294 2.002 4.627V4.2165ZM4.18086 5.77257C4.17899 5.81415 4.1696 5.90085 4.1696 5.98756C4.1696 8.91238 4.1405 11.8381 4.17805 14.7629C4.18086 18.5108 5.55413 21.141 6.73692 23.0308C8.52049 25.8777 11.2278 26.826 14.5537 27.6957C15.1967 27.8638 15.7928 27.8558 16.4367 27.6957C23.6142 25.9059 26.7905 21.2653 26.818 14.4639C26.8293 11.6718 26.8199 8.87876 26.8199 6.08576C26.8199 5.95925 26.8199 5.83185 26.8199 5.76815C19.7241 4.66316 11.2635 4.66139 4.17992 5.77257H4.18086Z"/><path fill="#2E2E2E" d="M22.9173 12.6751C22.7416 12.2723 22.4499 11.9819 22.0733 11.8356L22.0682 11.8338C21.8968 11.769 21.7143 11.7359 21.5303 11.7361H21.51C20.648 11.7486 19.768 12.4556 19.3205 13.4954C18.9923 14.2558 18.9547 15.0736 19.2199 15.6832C19.3952 16.0863 19.6876 16.3767 20.0657 16.523L20.0699 16.5245C20.2413 16.5893 20.4237 16.6224 20.6078 16.6223C21.4781 16.6223 22.3673 15.9153 22.823 14.8617C23.147 14.1022 23.1828 13.285 22.9173 12.6751ZM19.473 17.16C18.9759 16.8718 18.506 16.599 18.199 16.1092C17.3522 14.7533 16.8408 13.9349 15.5 13.9349C14.1592 13.9349 13.6466 14.7533 12.7978 16.1092C12.4902 16.5997 12.0194 16.8727 11.5206 17.1622C10.9488 17.4938 10.358 17.8365 10.1029 18.5108C10.0038 18.7538 9.95384 19.013 9.9558 19.2742C9.9558 20.3721 10.8419 21.2653 11.9304 21.2653C12.4921 21.2653 13.0899 21.0775 13.7225 20.8787C14.3307 20.6876 14.9595 20.49 15.5032 20.49C16.0468 20.49 16.674 20.6876 17.28 20.8787C17.9113 21.0763 18.5063 21.2641 19.0696 21.2641C20.1566 21.2641 21.041 20.3709 21.041 19.273C21.0419 19.0116 20.9909 18.7524 20.8907 18.5095C20.6357 17.8346 20.0445 17.4917 19.473 17.16ZM12.1456 12.8614C12.5222 13.3174 13 13.5684 13.4912 13.5684C13.5582 13.5684 13.6252 13.5636 13.6915 13.554C14.7158 13.4087 15.3541 12.2024 15.1446 10.8056C15.057 10.2183 14.8228 9.67137 14.4874 9.26582C14.1114 8.81079 13.6329 8.56007 13.1421 8.56007C13.0751 8.56007 13.0081 8.56487 12.9418 8.57442C11.9175 8.71979 11.2792 9.92606 11.4887 11.3229C11.576 11.9092 11.8102 12.4556 12.1456 12.8614ZM17.3088 13.554C17.3751 13.5636 17.4421 13.5684 17.5091 13.5684C18.0006 13.5684 18.4781 13.3174 18.8547 12.8614C19.1898 12.4556 19.4227 11.9092 19.5113 11.3223C19.7208 9.92606 19.0825 8.71979 18.0582 8.57381C17.9919 8.56426 17.9249 8.55946 17.8579 8.55946C17.3671 8.56007 16.8886 8.81079 16.5126 9.26582C16.1772 9.67137 15.943 10.2183 15.8557 10.8062C15.6462 12.2024 16.2845 13.4087 17.3088 13.554ZM10.9301 16.5245L10.9346 16.523C11.3121 16.3767 11.6042 16.0866 11.7792 15.6838C12.0444 15.073 12.007 14.2561 11.6795 13.4957C11.226 12.4434 10.3371 11.7361 9.46783 11.7361C9.28375 11.7358 9.10125 11.769 8.92987 11.8338L8.92544 11.8353C8.54886 11.9804 8.25678 12.2717 8.08178 12.6745C7.8166 13.2853 7.85394 14.1022 8.18146 14.8626C8.63493 15.915 9.52384 16.6223 10.3931 16.6223C10.5769 16.6224 10.7591 16.5892 10.9301 16.5245Z"/></svg>