<svg xmlns="http://www.w3.org/2000/svg" width="32" height="32" fill="none" viewBox="0 0 32 32"><path fill="#2E2E2E" d="M12.6398 12.6398H19.3598V19.3598H12.6398V12.6398Z"/><path fill="#2E2E2E" d="M24.9598 9.2798C24.9598 8.04444 23.9552 7.0398 22.7198 7.0398H20.4798V4.7998H18.2398V7.0398H13.7598V4.7998H11.5198V7.0398H9.2798C8.04444 7.0398 7.0398 8.04444 7.0398 9.2798V11.5198H4.7998V13.7598H7.0398V18.2398H4.7998V20.4798H7.0398V22.7198C7.0398 23.9552 8.04444 24.9598 9.2798 24.9598H11.5198V27.1998H13.7598V24.9598H18.2398V27.1998H20.4798V24.9598H22.7198C23.9552 24.9598 24.9598 23.9552 24.9598 22.7198V20.4798H27.1998V18.2398H24.9598V13.7598H27.1998V11.5198H24.9598V9.2798ZM9.2798 22.7198V9.2798H22.7198L22.722 22.7198H9.2798Z"/></svg>