<svg width="32" height="32" viewBox="0 0 32 32" fill="none" xmlns="http://www.w3.org/2000/svg">
<path d="M24.0656 6.87357C24.0355 6.84904 23.9322 6.76536 23.8375 6.68463C22.5461 5.61731 20.8319 4.97 19.1611 4.92065C17.4223 4.87039 15.7821 5.40889 14.3466 6.50494C14.084 6.70717 13.4328 7.34974 13.2333 7.6039C12.6 8.4184 12.207 9.16517 11.9201 10.0992C11.277 12.1892 11.5881 14.4382 12.7874 16.3684C12.9469 16.6231 13.2462 17.04 13.3339 17.1278L13.3713 17.1652L12.0622 18.4743L10.753 19.7835L9.69871 18.7236L8.64582 17.6623L8.13195 18.1762L7.61669 18.6915L8.67378 19.7485L9.73086 20.8056L8.09966 22.4368L6.46845 24.0681L7.00059 24.6002L7.53273 25.1323L9.16394 23.5011L10.7951 21.8699L11.8522 22.927L12.9093 23.9841L13.4246 23.4688L13.9385 22.955L12.8772 21.9021L11.8173 20.8478L13.1264 19.5386L14.4356 18.2294L14.473 18.2668C14.5607 18.3546 14.9777 18.6539 15.2324 18.8134C17.1626 20.0127 19.4115 20.3238 21.5015 19.6806C22.4356 19.3938 23.1824 19.0008 23.9969 18.3675C24.251 18.168 24.8936 17.5168 25.0958 17.2542C25.6773 16.4915 26.0564 15.7701 26.3315 14.9054C27.0967 12.4977 26.5979 9.90431 24.971 7.8293C24.8266 7.64574 24.1919 6.97459 24.0656 6.87357ZM23.8077 8.69913C24.4744 9.52821 24.9246 10.5133 25.1174 11.5602C25.3867 13.0169 25.0824 14.5552 24.2696 15.8454C23.3831 17.2497 21.882 18.21 20.1601 18.4764C19.8386 18.5246 19.3736 18.5496 19.0527 18.534C16.9669 18.4365 15.0547 17.3055 13.9867 15.5402C13.042 13.9795 12.8107 12.1743 13.3432 10.5114C13.937 8.65483 15.2711 7.30343 17.1118 6.69383C18.8183 6.12925 20.6575 6.35539 22.2341 7.32437C22.5732 7.53466 22.7467 7.66327 23.1586 8.01076C23.2676 8.10303 23.6793 8.53991 23.8077 8.69913Z" fill="#2E2E2E" stroke="#2E2E2E"/>
</svg>
