<svg xmlns="http://www.w3.org/2000/svg" width="32" height="32" fill="none" viewBox="0 0 32 32"><path fill="#2E2E2E" stroke="#2E2E2E" d="M26.1629 5.61876C26.0932 5.62551 25.6955 5.66771 25.2791 5.70821C24.8627 5.75041 24.2169 5.81623 23.843 5.85336C23.4691 5.89049 22.4018 5.99851 21.4722 6.09133C20.5425 6.18416 19.4922 6.2888 19.1387 6.32425C18.7869 6.35969 18.4946 6.39175 18.4912 6.39513C18.4827 6.40694 18.6424 7.94281 18.6543 7.95462C18.6611 7.96137 18.8634 7.94618 19.1047 7.92255C19.3461 7.89893 20.4151 7.79091 21.4807 7.68458C22.5463 7.57825 23.6051 7.47192 23.8328 7.44998C24.0623 7.42635 24.2509 7.40948 24.2543 7.41116C24.256 7.41454 23.7479 7.9293 23.1241 8.55715C19.8253 11.877 18.9824 12.7225 18.9688 12.7225C18.962 12.7225 18.8651 12.655 18.7563 12.574C17.7162 11.7926 16.4976 11.2677 15.1924 11.0348C14.4259 10.8998 13.5166 10.8812 12.7451 10.9842C10.935 11.2289 9.261 12.0474 8.00334 13.3031C7.17057 14.1352 6.56214 15.0753 6.13385 16.1909C5.72256 17.266 5.54241 18.4407 5.61549 19.5495C5.78545 22.1014 7.14678 24.4525 9.2474 25.8246C9.55842 26.0272 9.70118 26.1116 10.0088 26.2685C11.6556 27.1158 13.481 27.3926 15.2587 27.0685C16.5877 26.8255 17.8946 26.2348 18.9314 25.4078C19.4565 24.9892 19.8916 24.5487 20.2927 24.0305C21.2172 22.8339 21.7815 21.4331 21.9582 19.8955C21.9939 19.5765 22.0092 18.8339 21.9837 18.52C21.8954 17.3909 21.6149 16.3833 21.1187 15.3976C20.9028 14.9673 20.5561 14.4204 20.2655 14.0491L20.1074 13.85L20.3777 13.5782C20.5272 13.428 20.9538 12.9977 21.3294 12.6213C22.0415 11.9057 24.6418 9.28964 25.1245 8.80357C25.2791 8.64829 25.4049 8.52171 25.4066 8.52509C25.4083 8.52677 25.3998 8.63141 25.3879 8.75631C25.376 8.8812 25.3505 9.158 25.3318 9.37234C25.3131 9.585 25.2808 9.93268 25.2621 10.1436C25.2434 10.3563 25.2129 10.7006 25.1942 10.9116C25.082 12.1622 24.9222 13.9749 24.9188 14.039L24.9137 14.1133L25.704 14.1841C26.1391 14.2213 26.4977 14.2517 26.4977 14.2517C26.4994 14.25 26.5402 13.8128 26.5878 13.2795C26.6354 12.7462 26.6881 12.142 26.7067 11.9377C26.7254 11.7335 26.7628 11.3048 26.7917 10.9842C26.8189 10.6635 26.8512 10.3226 26.8597 10.2247C26.8682 10.1268 26.8988 9.78584 26.9277 9.46517C26.9566 9.14449 26.9855 8.80357 26.9957 8.70568C27.0042 8.60778 27.0365 8.26686 27.0636 7.94618C27.0925 7.62551 27.135 7.15631 27.1571 6.90315C27.1894 6.56222 27.1996 6.33268 27.1996 6.02213V5.60019L26.7458 5.60188C26.4943 5.60357 26.2326 5.61032 26.1629 5.61876ZM14.5551 12.5436C15.6649 12.6955 16.62 13.0466 17.4868 13.6221C18.928 14.5791 19.9239 16.0711 20.274 17.7943C20.3709 18.2787 20.393 18.5065 20.393 19.0685C20.3913 19.5968 20.3743 19.7892 20.291 20.2415C19.9817 21.8989 19.0095 23.428 17.6618 24.3732C16.812 24.9689 15.8654 25.3571 14.8627 25.5242C14.4531 25.5917 14.261 25.6069 13.7988 25.6069C13.141 25.6069 12.6533 25.5411 12.021 25.3639C9.37997 24.6213 7.52917 22.4255 7.22835 19.6761C7.18077 19.2508 7.20116 18.5571 7.27424 18.0896C7.55127 16.3192 8.5353 14.7242 9.96631 13.7251C10.9724 13.023 12.0788 12.6263 13.3484 12.5133C13.5285 12.4981 14.3681 12.5183 14.5551 12.5436Z"/></svg>