<svg xmlns="http://www.w3.org/2000/svg" width="32" height="32" fill="none" viewBox="0 0 32 32"><path fill="#2E2E2E" d="M24.6671 24.0775C24.5661 23.9657 24.5111 23.818 24.5136 23.6653C24.5162 23.5126 24.5761 23.3669 24.6808 23.2588C24.7858 23.1509 24.9274 23.0892 25.0756 23.0866C25.2239 23.0839 25.3674 23.1406 25.476 23.2446L27.1699 24.989V7.01101L25.476 8.75537C25.3674 8.85941 25.2239 8.91607 25.0756 8.91343C24.9274 8.91079 24.7858 8.84907 24.6808 8.74123C24.5761 8.63311 24.5162 8.48739 24.5136 8.3347C24.5111 8.18202 24.5661 8.03426 24.6671 7.92248L27.3378 5.17235C27.4451 5.06199 27.5906 5 27.7422 5C27.8939 5 28.0394 5.06199 28.1467 5.17235L30.8174 7.92248C30.8927 7.99451 30.9478 8.08613 30.9768 8.18769C31.0058 8.28924 31.0077 8.39698 30.9822 8.49954C30.9567 8.6021 30.9049 8.69568 30.8321 8.77044C30.7593 8.8452 30.6683 8.89835 30.5686 8.92431C30.4691 8.95057 30.3646 8.94873 30.266 8.91901C30.1675 8.88928 30.0785 8.83275 30.0085 8.75537L28.3145 7.01101V24.989L30.0085 23.2446C30.0785 23.1671 30.1674 23.1103 30.2661 23.0805C30.3647 23.0506 30.4693 23.0487 30.5689 23.0749C30.6685 23.1011 30.7594 23.1545 30.832 23.2295C30.9046 23.3044 30.9562 23.3982 30.9814 23.5008C31.0069 23.6032 31.0051 23.7108 30.9763 23.8123C30.9474 23.9138 30.8925 24.0054 30.8174 24.0775L28.1467 26.8277C28.0394 26.938 27.8939 27 27.7422 27C27.5906 27 27.4451 26.938 27.3378 26.8277L24.6671 24.0775Z"/><path fill="#2E2E2E" d="M1 23.4349C1.15716 23.0643 1.43764 22.9313 1.83204 22.9494C2.30094 22.9709 2.77199 22.964 3.24175 22.952C3.88194 22.936 4.50843 22.9731 5.10538 23.3501C5.11052 23.2417 5.11608 23.1681 5.11651 23.0945C5.12336 21.9994 5.09082 20.9026 5.14306 19.8101C5.25782 17.3999 6.33909 15.4805 8.19073 13.9786C8.58384 13.6597 8.99193 13.3592 9.38547 13.0402C10.644 12.0205 11.2786 10.6947 11.3001 9.07012C11.3253 7.1576 12.6036 5.54553 14.4526 5.11421C14.755 5.04362 15.0718 5.01607 15.3827 5.00832C16.0234 4.99239 16.6644 5.01047 17.305 5.00014C17.5817 4.99584 17.7945 5.09054 17.9863 5.28812C18.5285 5.84599 19.0783 6.39698 19.6341 6.94194C19.7057 7.0121 19.8273 7.06419 19.9266 7.06548C20.6597 7.07581 21.3933 7.07021 22.1268 7.07151C22.6356 7.07237 22.8835 7.32289 22.8814 7.83944C22.8792 8.36159 22.919 8.88976 22.8561 9.40502C22.6805 10.838 21.5676 11.8001 20.1245 11.8152C19.6834 11.8199 19.2427 11.816 18.7648 11.816V12.0764C18.7648 13.6226 18.7554 15.1689 18.7674 16.7146C18.7811 18.4821 18.1581 19.9504 16.7993 21.0911C16.7445 21.1372 16.7051 21.2336 16.7038 21.3072C16.6957 21.8367 16.7038 22.3665 16.6965 22.896C16.6948 23.0178 16.7428 23.0673 16.8468 23.1155C17.6489 23.4888 18.0557 24.1276 18.075 25.013C18.0831 25.3996 18.0634 25.7865 18.0805 26.1722C18.0981 26.5691 17.9572 26.8506 17.5829 27H3.35052C3.31883 26.9867 3.28843 26.9673 3.25545 26.9617C2.43027 26.8123 1.78836 26.3806 1.37941 25.6484C1.20598 25.338 1.12376 24.9756 1 24.6372C1 24.236 1 23.8361 1 23.4349ZM16.7942 25.7009C16.7942 25.4697 16.798 25.2493 16.7933 25.0289C16.783 24.5559 16.5325 24.2881 16.0658 24.2433C15.6632 24.2046 15.4226 23.9614 15.4196 23.5572C15.4127 22.6623 15.4166 21.7674 15.4183 20.8724C15.4187 20.637 15.5044 20.4402 15.7018 20.3012C16.953 19.4201 17.5029 18.1989 17.4875 16.678C17.4695 14.8955 17.4832 13.113 17.4832 11.3305C17.4832 10.7485 17.7037 10.5298 18.284 10.5272C18.9674 10.5242 19.6521 10.5393 20.3343 10.5066C20.909 10.4786 21.422 10.0438 21.5384 9.48121C21.6125 9.12436 21.5963 8.749 21.622 8.36073C20.9197 8.36073 20.2662 8.35384 19.6127 8.36417C19.3434 8.36848 19.1361 8.27765 18.9494 8.08567C18.4013 7.52306 17.8454 6.9682 17.287 6.41549C17.2275 6.35651 17.1346 6.29926 17.0562 6.2984C16.4439 6.28979 15.8307 6.2786 15.2192 6.29926C13.9349 6.34274 12.7744 7.36594 12.634 8.64784C12.5509 9.40502 12.5749 10.1773 12.5967 10.9413C12.6087 11.3662 12.8729 11.6718 13.2695 11.8307C13.973 12.1126 14.7164 11.5991 14.7271 10.8178C14.7378 10.0305 14.7263 9.24274 14.7318 8.45543C14.7348 8.05553 15.0106 7.7654 15.3712 7.76282C15.7347 7.76024 16.0092 8.04735 16.0105 8.44897C16.0135 9.27201 16.0229 10.0959 16.0041 10.9185C15.9818 11.8952 15.3519 12.7355 14.4321 13.0613C13.5294 13.3812 12.5209 13.113 11.8854 12.3842C11.8443 12.3373 11.8015 12.2917 11.7741 12.2611C11.4988 12.6197 11.2697 13.0131 10.9519 13.3106C10.3284 13.8943 9.66938 14.4427 8.99964 14.973C7.2709 16.341 6.42559 18.1369 6.40375 20.3301C6.38662 22.0407 6.40032 23.7522 6.40032 25.4628C6.40032 25.5395 6.40032 25.6161 6.40032 25.7009H13.2326C13.084 24.9592 12.2366 24.2881 11.4084 24.2472C10.8136 24.2179 10.6282 24.0075 10.6115 23.4048C10.6008 23.0213 10.6158 22.6166 10.5006 22.2607C10.191 21.305 9.48268 20.8393 8.4922 20.7812C8.1038 20.7584 7.85586 20.4721 7.87513 20.1023C7.89311 19.7528 8.17702 19.4872 8.55086 19.5014C8.79838 19.5109 9.04974 19.5367 9.2904 19.594C10.8033 19.956 11.8482 21.2611 11.9004 22.8314C11.9026 22.8977 11.933 23.0049 11.9771 23.0213C12.1993 23.1048 12.4301 23.165 12.6725 23.2378C12.6725 23.1431 12.6725 23.0652 12.6725 22.9868C12.6725 22.2852 12.6704 21.5835 12.6734 20.8819C12.6747 20.5384 12.8661 20.2818 13.162 20.2108C13.5821 20.1097 13.952 20.4136 13.9533 20.8711C13.9568 21.952 13.9542 23.0333 13.9555 24.1142C13.9555 24.1844 13.9435 24.2726 13.9786 24.3225C14.2762 24.741 14.4745 25.2028 14.5854 25.7H16.7954L16.7942 25.7009ZM2.28981 24.2563C2.27953 24.939 2.72831 25.5403 3.36979 25.6621C3.6871 25.7224 4.01983 25.7022 4.34614 25.7108C4.59922 25.7172 4.8523 25.7121 5.10324 25.7121C5.13193 24.9812 4.61378 24.3269 3.91791 24.2657C3.38349 24.2188 2.84136 24.2563 2.28981 24.2563Z"/><path stroke="#2E2E2E" stroke-width=".5" d="M24.6671 24.0775C24.5661 23.9657 24.5111 23.818 24.5136 23.6653C24.5162 23.5126 24.5761 23.3669 24.6808 23.2588C24.7858 23.1509 24.9274 23.0892 25.0756 23.0866C25.2239 23.0839 25.3674 23.1406 25.476 23.2446L27.1699 24.989V7.01101L25.476 8.75537C25.3674 8.85941 25.2239 8.91607 25.0756 8.91343C24.9274 8.91079 24.7858 8.84907 24.6808 8.74123C24.5761 8.63311 24.5162 8.48739 24.5136 8.3347C24.5111 8.18202 24.5661 8.03426 24.6671 7.92248L27.3378 5.17235C27.4451 5.06199 27.5906 5 27.7422 5C27.8939 5 28.0394 5.06199 28.1467 5.17235L30.8174 7.92248C30.8927 7.99451 30.9478 8.08613 30.9768 8.18769C31.0058 8.28924 31.0077 8.39698 30.9822 8.49954C30.9567 8.6021 30.9049 8.69568 30.8321 8.77044C30.7593 8.8452 30.6683 8.89835 30.5686 8.92431C30.4691 8.95057 30.3646 8.94873 30.266 8.91901C30.1675 8.88928 30.0785 8.83275 30.0085 8.75537L28.3145 7.01101V24.989L30.0085 23.2446C30.0785 23.1671 30.1674 23.1103 30.2661 23.0805C30.3647 23.0506 30.4693 23.0487 30.5689 23.0749C30.6685 23.1011 30.7594 23.1545 30.832 23.2295C30.9046 23.3044 30.9562 23.3982 30.9814 23.5008C31.0069 23.6032 31.0051 23.7108 30.9763 23.8123C30.9474 23.9138 30.8925 24.0054 30.8174 24.0775L28.1467 26.8277C28.0394 26.938 27.8939 27 27.7422 27C27.5906 27 27.4451 26.938 27.3378 26.8277L24.6671 24.0775Z"/><path stroke="#2E2E2E" stroke-width=".5" d="M1 23.4349C1.15716 23.0643 1.43764 22.9313 1.83204 22.9494C2.30094 22.9709 2.77199 22.964 3.24175 22.952C3.88194 22.936 4.50843 22.9731 5.10538 23.3501C5.11052 23.2417 5.11608 23.1681 5.11651 23.0945C5.12336 21.9994 5.09082 20.9026 5.14306 19.8101C5.25782 17.3999 6.33909 15.4805 8.19073 13.9786C8.58384 13.6597 8.99193 13.3592 9.38547 13.0402C10.644 12.0205 11.2786 10.6947 11.3001 9.07012C11.3253 7.1576 12.6036 5.54553 14.4526 5.11421C14.755 5.04362 15.0718 5.01607 15.3827 5.00832C16.0234 4.99239 16.6644 5.01047 17.305 5.00014C17.5817 4.99584 17.7945 5.09054 17.9863 5.28812C18.5285 5.84599 19.0783 6.39698 19.6341 6.94194C19.7057 7.0121 19.8273 7.06419 19.9266 7.06548C20.6597 7.07581 21.3933 7.07021 22.1268 7.07151C22.6356 7.07237 22.8835 7.32289 22.8814 7.83944C22.8792 8.36159 22.919 8.88976 22.8561 9.40502C22.6805 10.838 21.5676 11.8001 20.1245 11.8152C19.6834 11.8199 19.2427 11.816 18.7648 11.816V12.0764C18.7648 13.6226 18.7554 15.1689 18.7674 16.7146C18.7811 18.4821 18.1581 19.9504 16.7993 21.0911C16.7445 21.1372 16.7051 21.2336 16.7038 21.3072C16.6957 21.8367 16.7038 22.3665 16.6965 22.896C16.6948 23.0178 16.7428 23.0673 16.8468 23.1155C17.6489 23.4888 18.0557 24.1276 18.075 25.013C18.0831 25.3996 18.0634 25.7865 18.0805 26.1722C18.0981 26.5691 17.9572 26.8506 17.5829 27H3.35052C3.31883 26.9867 3.28843 26.9673 3.25545 26.9617C2.43027 26.8123 1.78836 26.3806 1.37941 25.6484C1.20598 25.338 1.12376 24.9756 1 24.6372C1 24.236 1 23.8361 1 23.4349ZM16.7942 25.7009C16.7942 25.4697 16.798 25.2493 16.7933 25.0289C16.783 24.5559 16.5325 24.2881 16.0658 24.2433C15.6632 24.2046 15.4226 23.9614 15.4196 23.5572C15.4127 22.6623 15.4166 21.7674 15.4183 20.8724C15.4187 20.637 15.5044 20.4402 15.7018 20.3012C16.953 19.4201 17.5029 18.1989 17.4875 16.678C17.4695 14.8955 17.4832 13.113 17.4832 11.3305C17.4832 10.7485 17.7037 10.5298 18.284 10.5272C18.9674 10.5242 19.6521 10.5393 20.3343 10.5066C20.909 10.4786 21.422 10.0438 21.5384 9.48121C21.6125 9.12436 21.5963 8.749 21.622 8.36073C20.9197 8.36073 20.2662 8.35384 19.6127 8.36417C19.3434 8.36848 19.1361 8.27765 18.9494 8.08567C18.4013 7.52306 17.8454 6.9682 17.287 6.41549C17.2275 6.35651 17.1346 6.29926 17.0562 6.2984C16.4439 6.28979 15.8307 6.2786 15.2192 6.29926C13.9349 6.34274 12.7744 7.36594 12.634 8.64784C12.5509 9.40502 12.5749 10.1773 12.5967 10.9413C12.6087 11.3662 12.8729 11.6718 13.2695 11.8307C13.973 12.1126 14.7164 11.5991 14.7271 10.8178C14.7378 10.0305 14.7263 9.24274 14.7318 8.45543C14.7348 8.05553 15.0106 7.7654 15.3712 7.76282C15.7347 7.76024 16.0092 8.04735 16.0105 8.44897C16.0135 9.27201 16.0229 10.0959 16.0041 10.9185C15.9818 11.8952 15.3519 12.7355 14.4321 13.0613C13.5294 13.3812 12.5209 13.113 11.8854 12.3842C11.8443 12.3373 11.8015 12.2917 11.7741 12.2611C11.4988 12.6197 11.2697 13.0131 10.9519 13.3106C10.3284 13.8943 9.66938 14.4427 8.99964 14.973C7.2709 16.341 6.42559 18.1369 6.40375 20.3301C6.38662 22.0407 6.40032 23.7522 6.40032 25.4628C6.40032 25.5395 6.40032 25.6161 6.40032 25.7009H13.2326C13.084 24.9592 12.2366 24.2881 11.4084 24.2472C10.8136 24.2179 10.6282 24.0075 10.6115 23.4048C10.6008 23.0213 10.6158 22.6166 10.5006 22.2607C10.191 21.305 9.48268 20.8393 8.4922 20.7812C8.1038 20.7584 7.85586 20.4721 7.87513 20.1023C7.89311 19.7528 8.17702 19.4872 8.55086 19.5014C8.79838 19.5109 9.04974 19.5367 9.2904 19.594C10.8033 19.956 11.8482 21.2611 11.9004 22.8314C11.9026 22.8977 11.933 23.0049 11.9771 23.0213C12.1993 23.1048 12.4301 23.165 12.6725 23.2378C12.6725 23.1431 12.6725 23.0652 12.6725 22.9868C12.6725 22.2852 12.6704 21.5835 12.6734 20.8819C12.6747 20.5384 12.8661 20.2818 13.162 20.2108C13.5821 20.1097 13.952 20.4136 13.9533 20.8711C13.9568 21.952 13.9542 23.0333 13.9555 24.1142C13.9555 24.1844 13.9435 24.2726 13.9786 24.3225C14.2762 24.741 14.4745 25.2028 14.5854 25.7H16.7954L16.7942 25.7009ZM2.28981 24.2563C2.27953 24.939 2.72831 25.5403 3.36979 25.6621C3.6871 25.7224 4.01983 25.7022 4.34614 25.7108C4.59922 25.7172 4.8523 25.7121 5.10324 25.7121C5.13193 24.9812 4.61378 24.3269 3.91791 24.2657C3.38349 24.2188 2.84136 24.2563 2.28981 24.2563Z"/></svg>