<svg width="64" height="48" viewBox="0 0 64 48" fill="none" xmlns="http://www.w3.org/2000/svg">
<path d="M11.2391 7.31769C11.2391 8.47842 10.9502 9.53822 10.3726 10.4971C9.79489 11.4391 9.02184 12.2298 8.05339 12.869C8.5631 12.9699 9.00485 13.1466 9.37863 13.3989C9.75242 13.6344 10.0582 13.9288 10.2961 14.2821C10.551 14.6353 10.7379 15.0391 10.8568 15.4933C10.9927 15.9307 11.0607 16.3933 11.0607 16.8811C11.0607 17.84 10.8313 18.6811 10.3726 19.4044C9.93082 20.111 9.35315 20.6997 8.63956 21.1708C7.92596 21.625 7.12742 21.9698 6.24393 22.2053C5.37742 22.424 4.51092 22.5334 3.64441 22.5334C3.16869 22.5334 2.69296 22.4997 2.21723 22.4324C1.7415 22.3651 1.29126 22.2474 0.866504 22.0792C0.713592 22.0287 0.586164 21.8268 0.484223 21.4736C0.382281 21.1035 0.29733 20.6577 0.229369 20.1362C0.178398 19.6147 0.135922 19.0512 0.101942 18.4456C0.0679611 17.84 0.0424757 17.2596 0.0254854 16.7045C0.00849513 16.1493 0 15.6615 0 15.2409C0 14.8204 0 14.526 0 14.3578C0 13.769 0 13.1802 0 12.5914C0 11.9858 0.0169903 11.3887 0.0509708 10.7999C0.0509708 10.6485 0.0509708 10.413 0.0509708 10.0933C0.0679611 9.77373 0.0764562 9.42046 0.0764562 9.03355C0.0934465 8.62982 0.110437 8.20926 0.127427 7.77188C0.161408 7.33451 0.195388 6.93078 0.229369 6.56069C0.28034 6.17378 0.339805 5.84575 0.407766 5.57659C0.492718 5.30744 0.586165 5.13921 0.688106 5.07193C1.07888 4.81959 1.51213 4.58408 1.98786 4.36539C2.46359 4.12988 2.95631 3.92802 3.46602 3.75979C3.97573 3.59157 4.48543 3.45699 4.99514 3.35606C5.50485 3.25513 5.98907 3.20466 6.44781 3.20466C7.07645 3.20466 7.67961 3.29718 8.25728 3.48222C8.85194 3.65045 9.36164 3.91119 9.7864 4.26446C10.2281 4.61773 10.5764 5.0551 10.8313 5.57659C11.1031 6.08126 11.2391 6.66162 11.2391 7.31769ZM7.00849 8.65505C7.00849 8.36907 6.91504 8.1588 6.72815 8.02422C6.55825 7.88964 6.32888 7.82235 6.04004 7.82235C5.80218 7.82235 5.54733 7.87282 5.27548 7.97375C5.02063 8.07468 4.79975 8.20926 4.61286 8.37749C4.56189 8.42795 4.51092 8.57094 4.45995 8.80645C4.42597 9.04196 4.39199 9.31112 4.35801 9.61392C4.34102 9.89989 4.32403 10.1775 4.30704 10.4466C4.30704 10.6989 4.30704 10.8672 4.30704 10.9513C4.30704 10.9849 4.30704 11.0438 4.30704 11.1279C4.30704 11.1952 4.30704 11.2709 4.30704 11.355C4.32403 11.4391 4.34102 11.5148 4.35801 11.5821C4.375 11.6494 4.40048 11.683 4.43446 11.683C4.7233 11.683 5.02063 11.5821 5.32645 11.3802C5.63228 11.1616 5.90412 10.9008 6.14199 10.598C6.39684 10.2784 6.60072 9.94195 6.75364 9.58868C6.92354 9.23542 7.00849 8.92421 7.00849 8.65505ZM6.90655 15.9475C6.90655 15.6615 6.80461 15.4596 6.60072 15.3419C6.39684 15.2241 6.16747 15.1652 5.91262 15.1652C5.67475 15.1652 5.4199 15.2241 5.14805 15.3419C4.8932 15.4428 4.68082 15.569 4.51092 15.7204C4.45995 15.754 4.41747 15.8381 4.38349 15.9727C4.3665 16.1073 4.34951 16.2587 4.33252 16.4269C4.33252 16.5783 4.32403 16.7297 4.30704 16.8811C4.30704 17.0157 4.30704 17.1082 4.30704 17.1587C4.30704 17.1923 4.30704 17.2596 4.30704 17.3605C4.30704 17.4615 4.30704 17.5708 4.30704 17.6886C4.32403 17.7895 4.34102 17.8904 4.35801 17.9914C4.39199 18.0755 4.42597 18.1175 4.45995 18.1175C4.69781 18.1175 4.96116 18.0502 5.25 17.9157C5.53883 17.7811 5.80218 17.6129 6.04004 17.411C6.2949 17.2091 6.49878 16.982 6.65169 16.7297C6.8216 16.4605 6.90655 16.1998 6.90655 15.9475Z" fill="#F9F9F9"/>
<path d="M21.2039 5.09716C21.2039 5.41678 21.1274 5.70275 20.9745 5.95509C20.8386 6.20742 20.6517 6.42611 20.4138 6.61115C20.176 6.77938 19.9126 6.92236 19.6238 7.04012C19.3349 7.15787 19.0546 7.24199 18.7828 7.29245C18.7488 9.19336 18.6723 11.027 18.5534 12.7933C18.4514 14.5596 18.2815 16.3848 18.0437 18.2689H18.1966C18.4684 18.2689 18.7318 18.3026 18.9866 18.3699C19.2585 18.4203 19.4963 18.5213 19.7002 18.6727C19.9211 18.8072 20.091 18.9839 20.2099 19.2026C20.3459 19.4044 20.4138 19.6568 20.4138 19.9596C20.4138 20.3465 20.2864 20.6829 20.0315 20.9689C19.7937 21.2549 19.4709 21.4988 19.0631 21.7007C18.6723 21.9025 18.2306 22.0708 17.7378 22.2053C17.2451 22.3399 16.7524 22.4408 16.2597 22.5081C15.767 22.5922 15.2997 22.6511 14.858 22.6848C14.4163 22.7184 14.0595 22.7352 13.7876 22.7352C13.5837 22.7352 13.3289 22.7268 13.023 22.71C12.7342 22.6932 12.4539 22.6427 12.182 22.5586C11.9272 22.4745 11.7063 22.3483 11.5194 22.1801C11.3325 22.0119 11.2391 21.7848 11.2391 21.4988C11.2391 21.1455 11.3155 20.8343 11.4684 20.5652C11.6044 20.2792 11.7913 20.0269 12.0291 19.8082C12.267 19.5895 12.5303 19.4128 12.8192 19.2783C13.125 19.1437 13.4308 19.0428 13.7366 18.9755C13.8556 18.0502 13.966 17.1334 14.068 16.225C14.1699 15.2998 14.2379 14.3662 14.2718 13.4241C14.3058 12.4653 14.3398 11.5232 14.3738 10.598C14.4078 9.65597 14.4417 8.71393 14.4757 7.77188C14.3568 7.78871 14.2463 7.80553 14.1444 7.82235C14.0425 7.82235 13.949 7.82235 13.8641 7.82235C13.6262 7.82235 13.3714 7.79712 13.0995 7.74665C12.8277 7.69619 12.5728 7.61207 12.3349 7.49432C12.0971 7.35974 11.8932 7.19993 11.7233 7.01488C11.5704 6.82984 11.4939 6.59434 11.4939 6.30836C11.4939 5.7364 11.7318 5.26538 12.2075 4.89529C12.7002 4.5252 13.2779 4.23923 13.9405 4.03736C14.6201 3.83549 15.3082 3.70092 16.0048 3.63363C16.7014 3.54952 17.2621 3.50746 17.6869 3.50746C17.9247 3.50746 18.2391 3.52428 18.6298 3.55793C19.0206 3.59157 19.4029 3.66727 19.7767 3.78502C20.1675 3.90278 20.4988 4.06259 20.7706 4.26446C21.0595 4.46633 21.2039 4.74389 21.2039 5.09716Z" fill="#F9F9F9"/>
<path d="M32.9781 16.1746C32.8252 16.9316 32.5789 17.7222 32.2391 18.5465C31.9162 19.354 31.4915 20.0941 30.9648 20.767C30.4551 21.4399 29.8434 21.9866 29.1298 22.4072C28.4162 22.8446 27.6007 23.0633 26.6832 23.0633C26.0036 23.0633 25.392 22.9287 24.8483 22.6595C24.3046 22.3904 23.8119 22.0287 23.3701 21.5745C22.9284 21.1203 22.5461 20.5988 22.2233 20.01C21.9005 19.4213 21.6286 18.8157 21.4077 18.1932C21.2039 17.554 21.051 16.9232 20.949 16.3007C20.8471 15.6783 20.7961 15.098 20.7961 14.5596C20.7961 13.8026 20.8641 12.9952 21 12.1372C21.1529 11.2625 21.3738 10.4046 21.6626 9.56345C21.9514 8.70552 22.3167 7.88964 22.7585 7.11582C23.2002 6.32518 23.7184 5.63547 24.3131 5.04669C24.9247 4.44109 25.6043 3.96166 26.3519 3.60839C27.1165 3.23831 27.966 3.05326 28.9005 3.05326C29.4951 3.05326 30.0473 3.17101 30.557 3.40652C31.0667 3.62521 31.5085 3.92801 31.8823 4.31492C32.256 4.68501 32.5449 5.1308 32.7488 5.65229C32.9696 6.17377 33.0801 6.7205 33.0801 7.29245V7.51955C33.0801 7.82235 33.0631 8.20085 33.0291 8.65505C33.0121 9.09243 32.9357 9.51299 32.7997 9.91672C32.6638 10.3205 32.4599 10.6737 32.1881 10.9765C31.9162 11.2625 31.534 11.4055 31.0412 11.4055C30.4466 11.4055 29.9963 11.2709 29.6905 11.0017C29.3847 10.7326 29.2318 10.2868 29.2318 9.66438C29.2318 9.42887 29.2403 9.19336 29.2573 8.95785C29.2743 8.72234 29.2827 8.48683 29.2827 8.25132C29.2827 7.89805 29.2233 7.6289 29.1043 7.44385C28.9854 7.24199 28.7391 7.14105 28.3653 7.14105C27.9405 7.14105 27.5582 7.27563 27.2184 7.54478C26.8786 7.81394 26.5813 8.16721 26.3264 8.60459C26.0716 9.04196 25.8507 9.53822 25.6638 10.0933C25.4769 10.6485 25.324 11.212 25.2051 11.784C25.0861 12.3391 25.0012 12.8774 24.9502 13.3989C24.8993 13.9204 24.8738 14.3662 24.8738 14.7363C24.8738 15.0391 24.8908 15.3923 24.9247 15.7961C24.9587 16.183 25.0267 16.5615 25.1286 16.9316C25.2476 17.2848 25.4175 17.5876 25.6383 17.84C25.8592 18.0923 26.148 18.2185 26.5048 18.2185C27.1165 18.2185 27.6092 18.0334 27.983 17.6633C28.3568 17.2764 28.6116 16.7886 28.7476 16.1998C28.5097 16.1662 28.2718 16.1157 28.034 16.0484C27.8131 15.9643 27.6007 15.8549 27.3968 15.7204C27.2099 15.569 27.057 15.3923 26.9381 15.1905C26.8192 14.9718 26.7597 14.7195 26.7597 14.4335C26.7597 13.912 26.9381 13.5083 27.2949 13.2223C27.6517 12.9195 28.0679 12.6924 28.5437 12.541C29.0364 12.3896 29.5376 12.2971 30.0473 12.2634C30.557 12.2129 30.9648 12.1877 31.2706 12.1877C31.4915 12.1877 31.8143 12.2045 32.2391 12.2382C32.6638 12.2718 33.0801 12.3475 33.4878 12.4653C33.9126 12.5662 34.2779 12.7176 34.5837 12.9195C34.8895 13.1213 35.0424 13.3821 35.0424 13.7017C35.0424 14.341 34.864 14.8961 34.5073 15.3671C34.1674 15.8213 33.6577 16.0905 32.9781 16.1746Z" fill="#F9F9F9"/>
<path d="M12.1311 43.7103C12.1311 44.1309 11.9527 44.5262 11.5959 44.8963C11.2561 45.2664 10.8058 45.6028 10.2451 45.9056C9.70146 46.2084 9.0898 46.4776 8.41019 46.7131C7.73058 46.9318 7.05946 47.1168 6.39684 47.2682C5.73422 47.4365 5.10558 47.5626 4.51092 47.6467C3.93325 47.7308 3.47451 47.7729 3.13471 47.7729C2.81189 47.7729 2.46359 47.7393 2.08981 47.672C1.73301 47.6215 1.43568 47.4953 1.19782 47.2935C1.0619 47.1925 0.942964 46.9654 0.841023 46.6122C0.739081 46.2589 0.637137 45.8383 0.535196 45.3505C0.450244 44.8627 0.373788 44.3412 0.305827 43.786C0.237866 43.2141 0.178398 42.659 0.127427 42.1206C0.0934468 41.5823 0.0594706 41.0861 0.0254901 40.6319C0.00849982 40.1777 0 39.8244 0 39.5721C0 39.1515 0.00849982 38.6469 0.0254901 38.0581C0.0594706 37.4525 0.101943 36.8132 0.152914 36.1404C0.203884 35.4506 0.271844 34.7525 0.356796 34.046C0.441747 33.3395 0.535195 32.675 0.637137 32.0526C0.756069 31.4133 0.891989 30.8414 1.0449 30.3367C1.2148 29.832 1.39321 29.4367 1.5801 29.1507C1.90292 28.6965 2.31068 28.4694 2.8034 28.4694C3.1432 28.4694 3.43204 28.5872 3.6699 28.8227C3.90777 29.0414 4.09466 29.3358 4.23058 29.7059C4.38349 30.0591 4.49393 30.4629 4.56189 30.9171C4.64685 31.3544 4.70631 31.7918 4.74029 32.2292C4.77427 32.6666 4.79126 33.0703 4.79126 33.4404C4.79126 33.8105 4.79126 34.1049 4.79126 34.3236C4.79126 35.6357 4.75728 36.9394 4.68932 38.2347C4.63835 39.5132 4.61286 40.8085 4.61286 42.1206V43.1047C5.37743 42.8692 6.20995 42.6505 7.11044 42.4487C8.01092 42.23 8.86893 42.1206 9.68447 42.1206C9.9733 42.1206 10.2621 42.1375 10.551 42.1711C10.8568 42.2048 11.1201 42.2805 11.341 42.3982C11.5789 42.4991 11.7658 42.659 11.9017 42.8776C12.0546 43.0795 12.1311 43.3571 12.1311 43.7103Z" fill="#F9F9F9"/>
<path d="M25.6383 43.458C25.6383 43.7945 25.6043 44.1982 25.5364 44.6692C25.4854 45.1402 25.375 45.5944 25.2051 46.0318C25.0352 46.4524 24.8058 46.814 24.517 47.1168C24.2281 47.4028 23.8459 47.5458 23.3701 47.5458C22.7415 47.5458 22.2658 47.3187 21.943 46.8645C21.6371 46.4103 21.4163 45.872 21.2803 45.2496C21.1444 44.6103 21.0595 43.9627 21.0255 43.3066C21.0085 42.6505 20.9915 42.1291 20.9745 41.7421C19.7512 41.944 18.5449 42.1206 17.3556 42.272C17.3216 42.659 17.2451 43.1384 17.1262 43.7103C17.0243 44.2823 16.8544 44.8374 16.6165 45.3757C16.3956 45.8972 16.0983 46.3514 15.7245 46.7383C15.3677 47.1253 14.926 47.3187 14.3993 47.3187C13.9915 47.3187 13.6687 47.1757 13.4308 46.8897C13.2099 46.5869 13.04 46.2337 12.9211 45.8299C12.8022 45.4262 12.7257 45.0141 12.6917 44.5935C12.6748 44.1561 12.6663 43.7945 12.6663 43.5085C12.6663 42.5496 12.7427 41.6076 12.8956 40.6823C13.0485 39.7403 13.2269 38.8067 13.4308 37.8815C13.5328 37.3936 13.6687 36.8217 13.8386 36.1656C14.0085 35.5095 14.2124 34.8366 14.4502 34.1469C14.7051 33.4404 14.9939 32.7507 15.3167 32.0778C15.6565 31.3881 16.0388 30.7741 16.4636 30.2358C16.8883 29.6975 17.3726 29.2601 17.9163 28.9236C18.4599 28.5872 19.0631 28.419 19.7257 28.419C20.3713 28.419 20.932 28.562 21.4078 28.8479C21.8835 29.1339 22.2997 29.5124 22.6565 29.9834C23.0133 30.4545 23.3107 30.9928 23.5485 31.5984C23.7864 32.1871 23.9818 32.7927 24.1347 33.4152C24.3046 34.0208 24.4405 34.618 24.5425 35.2067C24.6614 35.7955 24.7633 36.317 24.8483 36.7712C25.0692 37.8646 25.256 38.9749 25.409 40.102C25.5619 41.2122 25.6383 42.3309 25.6383 43.458ZM20.7196 37.3263C20.7196 37.1245 20.7027 36.7964 20.6687 36.3422C20.6517 35.8712 20.6007 35.4086 20.5158 34.9544C20.4308 34.4834 20.2949 34.0712 20.108 33.718C19.9381 33.3479 19.7002 33.1628 19.3944 33.1628C19.2245 33.1628 19.0631 33.2806 18.9102 33.5161C18.7573 33.7348 18.6213 34.0208 18.5024 34.374C18.3835 34.7105 18.273 35.089 18.1711 35.5095C18.0862 35.9301 18.0097 36.3338 17.9417 36.7207C17.8738 37.1076 17.8228 37.4609 17.7888 37.7805C17.7548 38.0833 17.7294 38.302 17.7124 38.4366C18.7318 38.3525 19.7342 38.2263 20.7196 38.0581V37.3263Z" fill="#F9F9F9"/>
<path d="M39.1201 33.6675C39.1201 34.5759 38.9162 35.4675 38.5085 36.3422C38.1177 37.217 37.591 38.0076 36.9284 38.7141C36.2657 39.4039 35.5097 39.9758 34.6602 40.43C33.8107 40.8674 32.9357 41.1113 32.0352 41.1618C32.0182 41.4646 32.0012 41.8515 31.9842 42.3225C31.9842 42.7767 31.9587 43.2561 31.9077 43.7608C31.8568 44.2655 31.7803 44.7701 31.6784 45.2748C31.5934 45.7795 31.4575 46.2337 31.2706 46.6374C31.1007 47.0411 30.8713 47.3692 30.5825 47.6215C30.3107 47.8738 29.9709 48 29.5631 48C29.0874 48 28.7051 47.8402 28.4162 47.5206C28.1444 47.2178 27.932 46.8477 27.7791 46.4103C27.6432 45.9729 27.5497 45.5187 27.4988 45.0477C27.4478 44.5599 27.4138 44.1477 27.3968 43.8113C27.3628 43.3234 27.3374 42.844 27.3204 42.373C27.3204 41.902 27.3204 41.4225 27.3204 40.9347C27.3204 40.716 27.3204 40.3123 27.3204 39.7235C27.3204 39.1179 27.3204 38.4366 27.3204 37.6796C27.3374 36.9058 27.3543 36.1067 27.3713 35.2824C27.3883 34.4413 27.4138 33.6675 27.4478 32.961C27.4818 32.2376 27.5158 31.6236 27.5497 31.1189C27.6007 30.6143 27.6602 30.3199 27.7281 30.2358C27.7451 30.2189 27.7961 30.1853 27.8811 30.1348C27.966 30.0675 28.0595 30.0087 28.1614 29.9582C28.2633 29.8909 28.3568 29.832 28.4417 29.7816C28.5267 29.7311 28.5861 29.6975 28.6201 29.6806C29.4017 29.2433 30.2597 28.8648 31.1942 28.5451C32.1286 28.2255 33.0546 28.0657 33.9721 28.0657C34.7536 28.0657 35.4587 28.2255 36.0873 28.5451C36.733 28.8479 37.2767 29.2601 37.7184 29.7816C38.1772 30.2862 38.5255 30.8834 38.7633 31.5731C39.0012 32.246 39.1201 32.9441 39.1201 33.6675ZM34.7111 34.2479C34.7111 33.9114 34.6262 33.617 34.4563 33.3647C34.3034 33.1124 34.04 32.9862 33.6662 32.9862C33.3434 32.9862 33.0206 33.0535 32.6978 33.1881C32.375 33.3058 32.0777 33.432 31.8058 33.5666C31.8568 34.1553 31.8993 34.7273 31.9332 35.2824C31.9842 35.8376 31.9927 36.4095 31.9587 36.9983C32.2306 36.8637 32.5279 36.7123 32.8507 36.5441C33.1735 36.359 33.4708 36.1572 33.7427 35.9385C34.0145 35.7198 34.2439 35.4759 34.4308 35.2067C34.6177 34.9207 34.7111 34.6011 34.7111 34.2479Z" fill="#F9F9F9"/>
<path d="M52.0922 43.458C52.0922 43.7945 52.0582 44.1982 51.9903 44.6692C51.9393 45.1402 51.8288 45.5944 51.6589 46.0318C51.489 46.4524 51.2597 46.814 50.9708 47.1168C50.682 47.4028 50.2997 47.5458 49.824 47.5458C49.1954 47.5458 48.7196 47.3187 48.3968 46.8645C48.091 46.4103 47.8701 45.872 47.7342 45.2496C47.5983 44.6103 47.5133 43.9627 47.4793 43.3066C47.4623 42.6505 47.4454 42.1291 47.4284 41.7421C46.2051 41.944 44.9988 42.1206 43.8094 42.272C43.7755 42.659 43.699 43.1384 43.5801 43.7103C43.4781 44.2823 43.3082 44.8374 43.0704 45.3757C42.8495 45.8972 42.5522 46.3514 42.1784 46.7383C41.8216 47.1253 41.3798 47.3187 40.8531 47.3187C40.4454 47.3187 40.1225 47.1757 39.8847 46.8897C39.6638 46.5869 39.4939 46.2337 39.375 45.8299C39.256 45.4262 39.1796 45.0141 39.1456 44.5935C39.1286 44.1561 39.1201 43.7945 39.1201 43.5085C39.1201 42.5496 39.1966 41.6076 39.3495 40.6823C39.5024 39.7403 39.6808 38.8067 39.8847 37.8815C39.9866 37.3936 40.1225 36.8217 40.2924 36.1656C40.4623 35.5095 40.6662 34.8366 40.9041 34.1469C41.159 33.4404 41.4478 32.7507 41.7706 32.0778C42.1104 31.3881 42.4927 30.7741 42.9174 30.2358C43.3422 29.6975 43.8264 29.2601 44.3701 28.9236C44.9138 28.5872 45.517 28.419 46.1796 28.419C46.8252 28.419 47.3859 28.562 47.8616 28.8479C48.3374 29.1339 48.7536 29.5124 49.1104 29.9834C49.4672 30.4545 49.7645 30.9928 50.0024 31.5984C50.2403 32.1871 50.4357 32.7927 50.5886 33.4152C50.7585 34.0208 50.8944 34.618 50.9963 35.2067C51.1153 35.7955 51.2172 36.317 51.3021 36.7712C51.523 37.8646 51.7099 38.9749 51.8628 40.102C52.0157 41.2122 52.0922 42.3309 52.0922 43.458ZM47.1735 37.3263C47.1735 37.1245 47.1565 36.7964 47.1225 36.3422C47.1056 35.8712 47.0546 35.4086 46.9696 34.9544C46.8847 34.4834 46.7488 34.0712 46.5619 33.718C46.392 33.3479 46.1541 33.1628 45.8483 33.1628C45.6784 33.1628 45.517 33.2806 45.364 33.5161C45.2111 33.7348 45.0752 34.0208 44.9563 34.374C44.8374 34.7105 44.7269 35.089 44.625 35.5095C44.54 35.9301 44.4636 36.3338 44.3956 36.7207C44.3276 37.1076 44.2767 37.4609 44.2427 37.7805C44.2087 38.0833 44.1832 38.302 44.1662 38.4366C45.1856 38.3525 46.1881 38.2263 47.1735 38.0581V37.3263Z" fill="#F9F9F9"/>
<path d="M57.2817 1.09879C53.6383 0.62618 52.6744 8.18767 56.141 8.63861C59.5488 9.0825 60.8661 1.56431 57.2817 1.09879ZM50.2933 0.0267887C50.2393 0.0186128 50.1852 0.0138761 50.1289 0.00910539C46.4695 -0.298862 45.9141 7.30568 49.3961 7.6C52.7655 7.88527 53.6992 0.545837 50.2933 0.0267887ZM43.9644 4.48051C43.8573 4.46077 43.7489 4.44845 43.64 4.44365C39.9737 4.28077 39.7774 11.9105 43.2659 12.0668C46.5882 12.216 47.2082 5.07309 43.9644 4.48051ZM62.0768 7.66507C58.4675 6.98011 56.9746 14.4554 60.4088 15.1085C63.7844 15.7508 65.6277 8.33947 62.0768 7.66507ZM51.8882 10.383C48.1643 9.83004 50.3674 14.1158 43.4251 15.2017C38.0443 16.0433 40.2244 21.722 44.5718 22.4834C46.9579 22.9014 48.1354 21.1807 50.0887 21.5232C52.3066 21.9118 52.1923 23.6165 55.4388 24.1852C59.5841 24.9111 62.8887 20.138 58.4498 17.5662C52.7981 14.2918 55.956 11.1173 52.0712 10.4143C52.009 10.4032 51.9473 10.3918 51.8882 10.383Z" fill="#F9F9F9"/>
</svg>
