<svg xmlns="http://www.w3.org/2000/svg" width="24" height="25" fill="none" viewBox="0 0 24 25"><path fill="#2E2E2E" stroke="#2E2E2E" stroke-width=".346" d="M3 18.5831C3.13419 18.2799 3.37368 18.1711 3.71043 18.1859C4.11081 18.2035 4.51301 18.1978 4.91411 18.188C5.46074 18.1749 5.99567 18.2052 6.50537 18.5138C6.50976 18.425 6.51451 18.3648 6.51488 18.3046C6.52073 17.4086 6.49294 16.5112 6.53755 15.6173C6.63554 13.6454 7.55877 12.075 9.13979 10.8462C9.47545 10.5852 9.8239 10.3394 10.1599 10.0784C11.2345 9.24403 11.7764 8.15928 11.7947 6.8301C11.8163 5.26531 12.9077 3.94634 14.4865 3.59345C14.7447 3.53569 15.0152 3.51315 15.2807 3.50681C15.8277 3.49378 16.375 3.50857 16.922 3.50011C17.1582 3.49659 17.34 3.57408 17.5038 3.73573C17.9667 4.19217 18.4361 4.64298 18.9107 5.08886C18.9718 5.14627 19.0756 5.18888 19.1605 5.18994C19.7864 5.19839 20.4128 5.19381 21.0391 5.19487C21.4735 5.19557 21.6852 5.40055 21.6834 5.82318C21.6815 6.25039 21.7155 6.68253 21.6618 7.10411C21.5119 8.27656 20.5616 9.06371 19.3294 9.07604C18.9528 9.07991 18.5765 9.07674 18.1685 9.07674V9.28982C18.1685 10.5549 18.1604 11.82 18.1707 13.0847C18.1824 14.5308 17.6504 15.7321 16.4902 16.6654C16.4434 16.7031 16.4098 16.782 16.4087 16.8422C16.4017 17.2754 16.4087 17.709 16.4025 18.1422C16.401 18.2419 16.4419 18.2824 16.5308 18.3218C17.2156 18.6272 17.563 19.1498 17.5794 19.8743C17.5864 20.1905 17.5696 20.5072 17.5842 20.8227C17.5992 21.1475 17.4789 21.3778 17.1593 21.5H5.00699C4.97993 21.4891 4.95397 21.4732 4.92581 21.4687C4.22123 21.3464 3.67314 20.9932 3.32396 20.3941C3.17587 20.1402 3.10567 19.8436 3 19.5668C3 19.2386 3 18.9107 3 18.5824V18.5831ZM16.4858 20.4371C16.4858 20.248 16.4891 20.0676 16.4851 19.8873C16.4763 19.5002 16.2624 19.2812 15.8639 19.2446C15.5202 19.2129 15.3147 19.0139 15.3121 18.6832C15.3063 17.9509 15.3096 17.2187 15.311 16.4865C15.3114 16.2939 15.3845 16.1329 15.5531 16.0192C16.6215 15.2982 17.091 14.2991 17.0778 13.0548C17.0624 11.5963 17.0741 10.1379 17.0741 8.67947C17.0741 8.2033 17.2624 8.02439 17.7579 8.02227C18.3414 8.01981 18.9261 8.03214 19.5086 8.00537C19.9992 7.98248 20.4373 7.62676 20.5367 7.16645C20.6 6.87448 20.5861 6.56736 20.608 6.24969C20.0084 6.24969 19.4504 6.24405 18.8925 6.2525C18.6625 6.25603 18.4855 6.18171 18.3261 6.02464C17.8581 5.56432 17.3835 5.11034 16.9067 4.65813C16.8558 4.60988 16.7765 4.56303 16.7096 4.56233C16.1867 4.55529 15.6631 4.54613 15.141 4.56303C14.0445 4.59861 13.0536 5.43577 12.9337 6.4846C12.8627 7.10411 12.8832 7.73594 12.9018 8.36108C12.9121 8.7087 13.1377 8.95876 13.4763 9.08872C14.077 9.3194 14.7117 8.89924 14.7209 8.26C14.73 7.61584 14.7202 6.97133 14.7249 6.32717C14.7275 5.99998 14.9629 5.7626 15.2708 5.76049C15.5812 5.75838 15.8156 5.99329 15.8167 6.32189C15.8193 6.99528 15.8273 7.66938 15.8112 8.34242C15.7922 9.14154 15.2544 9.82902 14.469 10.0956C13.6982 10.3573 12.8371 10.1379 12.2945 9.54164C12.2594 9.50325 12.2229 9.46591 12.1995 9.44091C11.9643 9.73429 11.7687 10.0562 11.4974 10.2996C10.9651 10.7771 10.4023 11.2258 9.83048 11.6597C8.3544 12.779 7.63263 14.2483 7.61398 16.0428C7.59936 17.4424 7.61106 18.8427 7.61106 20.2423C7.61106 20.305 7.61106 20.3677 7.61106 20.4371H13.4448C13.3179 19.8303 12.5943 19.2812 11.8872 19.2477C11.3793 19.2238 11.221 19.0516 11.2067 18.5585C11.1976 18.2447 11.2104 17.9136 11.112 17.6224C10.8477 16.8405 10.2429 16.4594 9.3972 16.4119C9.06557 16.3932 8.85386 16.159 8.87032 15.8565C8.88567 15.5705 9.12809 15.3532 9.44729 15.3648C9.65863 15.3725 9.87326 15.3937 10.0788 15.4405C11.3705 15.7367 12.2627 16.8046 12.3073 18.0894C12.3091 18.1436 12.3351 18.2313 12.3728 18.2447C12.5625 18.313 12.7596 18.3623 12.9666 18.4218C12.9666 18.3444 12.9666 18.2806 12.9666 18.2165C12.9666 17.6424 12.9647 17.0684 12.9673 16.4943C12.9684 16.2132 13.1318 16.0033 13.3845 15.9452C13.7432 15.8624 14.0591 16.1111 14.0602 16.4855C14.0631 17.3698 14.0609 18.2545 14.062 19.1389C14.062 19.1963 14.0518 19.2685 14.0818 19.3094C14.3359 19.6517 14.5052 20.0296 14.5999 20.4364H16.4869L16.4858 20.4371ZM4.1013 19.2551C4.09253 19.8137 4.47571 20.3057 5.02344 20.4054C5.29438 20.4547 5.57848 20.4381 5.85709 20.4452C6.07319 20.4505 6.28928 20.4462 6.50354 20.4462C6.52804 19.8482 6.08562 19.3129 5.49146 19.2629C5.03514 19.2245 4.57224 19.2551 4.1013 19.2551Z"/></svg>