<svg xmlns="http://www.w3.org/2000/svg" width="24" height="25" fill="none" viewBox="0 0 24 25"><path stroke="#2E2E2E" stroke-width="1.5" d="M17.4775 20.5676L17.4802 20.5664C17.7625 20.4383 18.0549 20.1843 18.2722 19.8563C18.4905 19.5271 18.5922 19.1861 18.5806 18.9116L17.4775 20.5676ZM17.4775 20.5676C16.8707 20.8456 16.1515 20.7269 15.1446 20.403C14.9831 20.351 14.8074 20.2915 14.625 20.2298C14.2937 20.1176 13.94 19.9978 13.608 19.9018C13.0725 19.7468 12.4893 19.6194 11.8899 19.6194C11.2866 19.6194 10.6994 19.7529 10.1625 19.9136C9.83697 20.011 9.48639 20.1332 9.15846 20.2476C8.96963 20.3134 8.78831 20.3766 8.62362 20.431C7.61425 20.7641 6.91651 20.8725 6.33836 20.5801L6.33838 20.5801M17.4775 20.5676L6.33838 20.5801M6.33838 20.5801L6.32992 20.5759M6.33838 20.5801L6.32992 20.5759M6.32992 20.5759C5.99748 20.413 5.679 20.0924 5.4562 19.6795M6.32992 20.5759L5.4562 19.6795M5.4562 19.6795C5.23321 19.2662 5.14162 18.8263 5.18449 18.4694M5.4562 19.6795L5.18449 18.4694M5.18449 18.4694C5.23924 18.0162 5.54314 17.6031 6.11628 17.106C6.33346 16.9177 6.56256 16.739 6.8087 16.547C6.88364 16.4885 6.96015 16.4288 7.03839 16.3673C7.35968 16.1144 7.70261 15.8353 8.00396 15.526C8.40049 15.1288 8.75584 14.658 9.08021 14.21C9.16171 14.0975 9.24096 13.9868 9.31884 13.878C9.5632 13.5368 9.79403 13.2144 10.0383 12.9119C10.6945 12.0996 11.2516 11.6894 11.8899 11.6894C12.5298 11.6894 13.1003 12.0984 13.7587 12.9013C14.035 13.2382 14.2973 13.6065 14.5743 13.9957C14.6199 14.0597 14.6658 14.1242 14.7123 14.1893C15.0309 14.6353 15.3746 15.1057 15.748 15.5073C16.0549 15.8441 16.4052 16.1601 16.7338 16.4519C16.7739 16.4876 16.8137 16.5228 16.8531 16.5577C17.1474 16.8186 17.4223 17.0621 17.673 17.3144C18.25 17.8949 18.558 18.3874 18.5806 18.9113L5.18449 18.4694ZM10.4048 6.54809L10.405 6.5489C10.5605 7.31346 10.4879 7.99542 10.2897 8.47327C10.0909 8.95236 9.80984 9.1494 9.55681 9.18799L9.55586 9.18814C9.29345 9.22851 8.91442 9.1154 8.5079 8.69687C8.11032 8.28754 7.76351 7.65316 7.60421 6.88678L7.60404 6.88596C7.44508 6.12554 7.5192 5.44586 7.72016 4.9673C7.92043 4.49038 8.20515 4.2849 8.463 4.2409C8.73399 4.20445 9.11272 4.32412 9.5125 4.73875C9.90744 5.14835 10.2498 5.78189 10.4048 6.54809ZM14.303 9.18799L14.3021 9.18785C14.0423 9.14856 13.7602 8.94948 13.5627 8.47327C13.3651 7.99708 13.2944 7.31667 13.4541 6.55288L13.455 6.54809C13.61 5.78189 13.9525 5.14797 14.3467 4.73808C14.7469 4.32194 15.1231 4.20477 15.3869 4.2409C15.6502 4.28503 15.935 4.49103 16.1364 4.96844C16.3383 5.44709 16.4148 6.12687 16.2652 6.88837C16.1005 7.65518 15.7536 8.28847 15.3569 8.69687C14.9515 9.11431 14.5721 9.22904 14.303 9.18799ZM3.298 8.78764C3.58841 8.66369 4.00896 8.6836 4.50602 8.96313C4.99558 9.23845 5.4851 9.73181 5.82942 10.3858C6.14963 11.0567 6.23536 11.7063 6.15368 12.201C6.07217 12.6946 5.84339 12.9734 5.57153 13.0913C5.28633 13.215 4.87181 13.1975 4.38282 12.9198C3.89932 12.6451 3.41521 12.1487 3.07987 11.4823C2.74561 10.818 2.65637 10.1671 2.73657 9.67018C2.81671 9.17372 3.04523 8.8988 3.298 8.78764ZM20.7018 8.78762C20.9545 8.89876 21.1831 9.17368 21.2632 9.67018C21.3434 10.1671 21.2542 10.818 20.9199 11.4823C20.5846 12.1487 20.1005 12.6451 19.617 12.9198C19.128 13.1975 18.7135 13.215 18.4283 13.0913C18.1564 12.9734 17.9276 12.6946 17.8461 12.201C17.7645 11.7063 17.8502 11.0567 18.1704 10.3858C18.5147 9.73181 19.0042 9.23845 19.4938 8.96313C19.9908 8.68362 20.4113 8.6637 20.7018 8.78762Z"/></svg>