<svg xmlns="http://www.w3.org/2000/svg" width="24" height="25" fill="none" viewBox="0 0 24 25"><path stroke="#2E2E2E" stroke-linecap="round" stroke-linejoin="round" stroke-width="2" d="M21.8881 17.4201V20.4201C21.8892 20.6986 21.8322 20.9743 21.7206 21.2294C21.6091 21.4846 21.4454 21.7137 21.2402 21.902C21.035 22.0902 20.7927 22.2336 20.5289 22.3228C20.265 22.412 19.9855 22.4452 19.7081 22.4201C16.631 22.0857 13.6751 21.0342 11.0781 19.3501C8.66194 17.8148 6.61345 15.7663 5.07812 13.3501C3.38809 10.7413 2.33636 7.77109 2.00812 4.6801C1.98313 4.40356 2.01599 4.12486 2.10462 3.86172C2.19324 3.59859 2.33569 3.35679 2.52288 3.15172C2.71008 2.94665 2.93792 2.78281 3.19191 2.67062C3.44589 2.55843 3.72046 2.50036 3.99812 2.5001H6.99812C7.48342 2.49532 7.95391 2.66718 8.32188 2.98363C8.68985 3.30008 8.93019 3.73954 8.99812 4.2201C9.12474 5.18016 9.35957 6.12282 9.69812 7.0301C9.83266 7.38802 9.86178 7.77701 9.78202 8.15098C9.70227 8.52494 9.51698 8.86821 9.24812 9.1401L7.97812 10.4101C9.40167 12.9136 11.4746 14.9865 13.9781 16.4101L15.2481 15.1401C15.52 14.8712 15.8633 14.6859 16.2372 14.6062C16.6112 14.5264 17.0002 14.5556 17.3581 14.6901C18.2654 15.0286 19.2081 15.2635 20.1681 15.3901C20.6539 15.4586 21.0975 15.7033 21.4146 16.0776C21.7318 16.4519 21.9003 16.9297 21.8881 17.4201Z"/></svg>