<svg xmlns="http://www.w3.org/2000/svg" width="20" height="21" viewBox="0 0 20 21" fill="none">
  <path d="M17.4298 11.48C17.4698 11.16 17.4998 10.84 17.4998 10.5C17.4998 10.16 17.4698 9.84005 17.4298 9.52005L19.5398 7.87005C19.7298 7.72005 19.7798 7.45005 19.6598 7.23005L17.6598 3.77005C17.6009 3.66687 17.5071 3.58807 17.3953 3.54775C17.2836 3.50744 17.1611 3.50825 17.0498 3.55005L14.5598 4.55005C14.0398 4.15005 13.4798 3.82005 12.8698 3.57005L12.4898 0.920047C12.4733 0.802388 12.4144 0.694807 12.3242 0.617483C12.234 0.540158 12.1186 0.498402 11.9998 0.500047H7.99984C7.74984 0.500047 7.53984 0.680047 7.50984 0.920047L7.12984 3.57005C6.51984 3.82005 5.95984 4.16005 5.43984 4.55005L2.94984 3.55005C2.89186 3.53038 2.83107 3.52025 2.76984 3.52005C2.59984 3.52005 2.42984 3.61005 2.33984 3.77005L0.339839 7.23005C0.209839 7.45005 0.26984 7.72005 0.45984 7.87005L2.56984 9.52005C2.52984 9.84005 2.49984 10.17 2.49984 10.5C2.49984 10.83 2.52984 11.16 2.56984 11.48L0.45984 13.13C0.26984 13.28 0.219839 13.55 0.339839 13.77L2.33984 17.23C2.39879 17.3332 2.49256 17.412 2.60434 17.4523C2.71612 17.4927 2.8386 17.4918 2.94984 17.45L5.43984 16.45C5.95984 16.85 6.51984 17.18 7.12984 17.43L7.50984 20.08C7.53984 20.32 7.74984 20.5 7.99984 20.5H11.9998C12.2498 20.5 12.4598 20.32 12.4898 20.08L12.8698 17.43C13.4798 17.18 14.0398 16.84 14.5598 16.45L17.0498 17.45C17.1098 17.47 17.1698 17.48 17.2298 17.48C17.3998 17.48 17.5698 17.39 17.6598 17.23L19.6598 13.77C19.7798 13.55 19.7298 13.28 19.5398 13.13L17.4298 11.48ZM15.4498 9.77005C15.4898 10.08 15.4998 10.29 15.4998 10.5C15.4998 10.71 15.4798 10.93 15.4498 11.23L15.3098 12.36L16.1998 13.06L17.2798 13.9L16.5798 15.11L15.3098 14.6L14.2698 14.18L13.3698 14.86C12.9398 15.18 12.5298 15.42 12.1198 15.59L11.0598 16.02L10.8998 17.15L10.6998 18.5H9.29984L9.10984 17.15L8.94984 16.02L7.88984 15.59C7.45984 15.41 7.05984 15.18 6.65984 14.88L5.74984 14.18L4.68984 14.61L3.41984 15.12L2.71984 13.91L3.79984 13.07L4.68984 12.37L4.54984 11.24C4.51984 10.93 4.49984 10.7 4.49984 10.5C4.49984 10.3 4.51984 10.07 4.54984 9.77005L4.68984 8.64005L3.79984 7.94005L2.71984 7.10005L3.41984 5.89005L4.68984 6.40005L5.72984 6.82005L6.62984 6.14005C7.05984 5.82005 7.46984 5.58005 7.87984 5.41005L8.93984 4.98005L9.09984 3.85005L9.29984 2.50005H10.6898L10.8798 3.85005L11.0398 4.98005L12.0998 5.41005C12.5298 5.59005 12.9298 5.82005 13.3298 6.12005L14.2398 6.82005L15.2998 6.39005L16.5698 5.88005L17.2698 7.09005L16.1998 7.94005L15.3098 8.64005L15.4498 9.77005ZM9.99984 6.50005C7.78984 6.50005 5.99984 8.29005 5.99984 10.5C5.99984 12.71 7.78984 14.5 9.99984 14.5C12.2098 14.5 13.9998 12.71 13.9998 10.5C13.9998 8.29005 12.2098 6.50005 9.99984 6.50005ZM9.99984 12.5C8.89984 12.5 7.99984 11.6 7.99984 10.5C7.99984 9.40005 8.89984 8.50005 9.99984 8.50005C11.0998 8.50005 11.9998 9.40005 11.9998 10.5C11.9998 11.6 11.0998 12.5 9.99984 12.5Z" fill="#2E2E2E"/>
</svg>
