<svg width="80" height="80" viewBox="0 0 80 80" fill="none" xmlns="http://www.w3.org/2000/svg">
<path d="M40 7.5C33.5721 7.5 27.2886 9.40609 21.944 12.9772C16.5994 16.5484 12.4338 21.6242 9.97393 27.5628C7.51408 33.5014 6.87047 40.0361 8.12449 46.3404C9.37851 52.6448 12.4738 58.4358 17.019 62.981C21.5643 67.5262 27.3552 70.6215 33.6596 71.8755C39.964 73.1295 46.4986 72.4859 52.4372 70.0261C58.3758 67.5662 63.4516 63.4006 67.0228 58.056C70.5939 52.7114 72.5 46.4279 72.5 40C72.4909 31.3833 69.0639 23.122 62.9709 17.0291C56.878 10.9361 48.6168 7.5091 40 7.5ZM40 67.5C34.561 67.5 29.2442 65.8872 24.7218 62.8654C20.1995 59.8437 16.6747 55.5488 14.5933 50.5238C12.5119 45.4988 11.9673 39.9695 13.0284 34.635C14.0895 29.3005 16.7086 24.4005 20.5546 20.5546C24.4005 16.7086 29.3006 14.0895 34.635 13.0284C39.9695 11.9673 45.4988 12.5119 50.5238 14.5933C55.5488 16.6747 59.8437 20.1995 62.8654 24.7218C65.8872 29.2442 67.5 34.561 67.5 40C67.4917 47.2909 64.5918 54.2808 59.4363 59.4363C54.2809 64.5918 47.2909 67.4917 40 67.5ZM25 33.75C25 33.0083 25.2199 32.2833 25.632 31.6666C26.0441 31.0499 26.6297 30.5693 27.315 30.2855C28.0002 30.0016 28.7542 29.9274 29.4816 30.0721C30.209 30.2167 30.8772 30.5739 31.4017 31.0983C31.9261 31.6228 32.2833 32.291 32.428 33.0184C32.5727 33.7458 32.4984 34.4998 32.2146 35.1851C31.9307 35.8703 31.4501 36.456 30.8334 36.868C30.2167 37.2801 29.4917 37.5 28.75 37.5C27.7555 37.5 26.8016 37.1049 26.0984 36.4017C25.3951 35.6984 25 34.7446 25 33.75ZM55 33.75C55 34.4917 54.7801 35.2167 54.368 35.8334C53.956 36.4501 53.3703 36.9307 52.6851 37.2145C51.9999 37.4984 51.2459 37.5726 50.5184 37.4279C49.791 37.2833 49.1228 36.9261 48.5984 36.4017C48.0739 35.8772 47.7168 35.209 47.5721 34.4816C47.4274 33.7542 47.5016 33.0002 47.7855 32.3149C48.0693 31.6297 48.5499 31.044 49.1666 30.632C49.7833 30.2199 50.5083 30 51.25 30C52.2446 30 53.1984 30.3951 53.9017 31.0983C54.6049 31.8016 55 32.7554 55 33.75ZM54.6625 53.75C54.8434 54.0345 54.9649 54.3527 55.0196 54.6854C55.0743 55.0181 55.0612 55.3585 54.9809 55.686C54.9007 56.0135 54.7551 56.3213 54.5528 56.5911C54.3505 56.8608 54.0957 57.0869 53.8038 57.2556C53.5119 57.4243 53.1889 57.5323 52.8542 57.5729C52.5195 57.6136 52.18 57.5861 51.8562 57.4922C51.5324 57.3982 51.2309 57.2398 50.9699 57.0263C50.7089 56.8128 50.4938 56.5488 50.3375 56.25C48.0031 52.2156 44.3344 50 40 50C35.6656 50 31.9969 52.2188 29.6625 56.25C29.5062 56.5488 29.2911 56.8128 29.0301 57.0263C28.7691 57.2398 28.4677 57.3982 28.1439 57.4922C27.82 57.5861 27.4806 57.6136 27.1458 57.5729C26.8111 57.5323 26.4881 57.4243 26.1962 57.2556C25.9043 57.0869 25.6495 56.8608 25.4472 56.5911C25.2449 56.3213 25.0993 56.0135 25.0191 55.686C24.9389 55.3585 24.9257 55.0181 24.9804 54.6854C25.0352 54.3527 25.1566 54.0345 25.3375 53.75C28.5531 48.1906 33.8969 45 40 45C46.1031 45 51.4469 48.1875 54.6625 53.75Z" fill="#ACABAB"/>
</svg>
