<svg xmlns="http://www.w3.org/2000/svg" width="49" height="48" fill="none" viewBox="0 0 49 48"><path fill="#2E2E2E" d="M32 26C32 25.6022 31.842 25.2206 31.5607 24.9393C31.2794 24.658 30.8978 24.5 30.5 24.5H18.5C18.1022 24.5 17.7206 24.658 17.4393 24.9393C17.158 25.2206 17 25.6022 17 26C17 26.3978 17.158 26.7794 17.4393 27.0607C17.7206 27.342 18.1022 27.5 18.5 27.5H30.5C30.8978 27.5 31.2794 27.342 31.5607 27.0607C31.842 26.7794 32 26.3978 32 26ZM32 34C32 33.6022 31.842 33.2206 31.5607 32.9393C31.2794 32.658 30.8978 32.5 30.5 32.5H18.5C18.1022 32.5 17.7206 32.658 17.4393 32.9393C17.158 33.2206 17 33.6022 17 34C17 34.3978 17.158 34.7794 17.4393 35.0607C17.7206 35.342 18.1022 35.5 18.5 35.5H30.5C30.8978 35.5 31.2794 35.342 31.5607 35.0607C31.842 34.7794 32 34.3978 32 34Z"/><path fill="#2E2E2E" fill-rule="evenodd" d="M14.5 4.5C13.0413 4.5 11.6424 5.07946 10.6109 6.11091C9.57946 7.14236 9 8.54131 9 10V38C9 39.4587 9.57946 40.8576 10.6109 41.8891C11.6424 42.9205 13.0413 43.5 14.5 43.5H34.5C35.9587 43.5 37.3576 42.9205 38.3891 41.8891C39.4205 40.8576 40 39.4587 40 38V15.936C40 15.174 39.752 14.434 39.292 13.826L33.296 5.89C32.9698 5.45823 32.5478 5.108 32.0634 4.86682C31.5789 4.62563 31.0452 4.50007 30.504 4.5H14.5ZM12 10C12 8.62 13.12 7.5 14.5 7.5H29V16.294C29 17.122 29.672 17.794 30.5 17.794H37V38C37 39.38 35.88 40.5 34.5 40.5H14.5C13.12 40.5 12 39.38 12 38V10Z" clip-rule="evenodd"/></svg>