<svg xmlns="http://www.w3.org/2000/svg" width="147" height="174" fill="none" viewBox="0 0 147 174"><path fill="#B5C268" d="M60.9597 35.3807C63.5832 32.2251 69.5621 32.9001 74.3497 36.9439C79.1156 40.9604 80.9057 46.7609 78.3039 49.9438C75.7276 53.1039 69.7233 52.4517 64.9103 48.4307C60.119 44.4371 58.3797 38.591 60.9597 35.3807ZM79.0984 19.0752C82.5309 16.8807 87.6442 19.6937 90.6089 25.3293C93.5193 31.0607 93.156 37.4369 89.7707 39.6359C86.36 41.8578 81.272 39.0219 78.358 33.3407C75.3969 27.6549 75.7602 21.2787 79.0984 19.0752ZM57.3997 60.1533C59.2252 56.2143 65.0946 55.1119 70.5232 57.5009C75.8903 60.0859 78.8439 65.2157 77.0437 69.1318C75.2436 73.0479 69.4214 74.1548 63.9999 71.6656C58.5785 69.1763 55.6539 63.9736 57.3997 60.1533ZM103.064 19.1043C106.899 17.9076 111.244 21.8333 112.657 27.9257C114.071 34.0181 112.079 39.9351 108.146 41.1729C104.213 42.4107 99.94 38.4668 98.429 32.4155C97.1101 26.3321 99.1051 20.3649 103.064 19.1043ZM122.291 52.3747C124.438 54.8525 124.876 59.3368 123.543 62.3639C120.786 68.6871 111.708 68.8756 106.66 73.4138C101.611 77.952 100.035 87.6697 93.6328 89.251C90.0294 90.1923 85.4493 88.2129 83.4284 84.9648C80.6419 80.4821 83.4416 74.2136 83.7582 68.8173C84.2662 61.7482 81.0351 52.2252 86.1342 47.6414C91.208 43.0804 99.578 47.7963 106.159 48.6805C111.63 49.4834 118.565 48.0795 122.291 52.3747Z"/><path fill="#B5C268" d="M28.7398 107.017C31.7828 104.656 37.2287 106.565 40.9262 111.34C44.6086 116.086 45.1792 121.846 42.1512 124.238C39.1512 126.614 33.6774 124.72 29.9519 119.96C26.2415 115.231 25.7269 109.439 28.7398 107.017ZM48.7359 95.7984C52.3512 94.5013 56.5854 98.2061 58.2821 104.066C59.9101 110.002 58.3643 115.834 54.7921 117.146C51.192 118.473 46.9858 114.752 45.3449 108.861C43.661 102.956 45.2068 97.1242 48.7359 95.7984ZM20.7312 129.213C23.1786 125.954 28.8588 126.192 33.4672 129.572C37.981 133.12 39.7632 138.508 37.3437 141.751C34.9242 144.994 29.2871 144.771 24.7044 141.3C20.1218 137.829 18.3804 132.379 20.7312 129.213ZM71.0711 100.97C74.873 100.684 78.1806 105.255 78.3445 111.205C78.5084 117.155 75.5318 122.211 71.6308 122.514C67.7299 122.817 64.4934 118.245 64.2305 112.312C64.1527 106.391 67.1422 101.288 71.0711 100.97ZM82.6962 135.933C84.229 138.69 83.7875 142.94 81.9719 145.46C78.2054 150.729 69.7067 148.955 64.1413 152.077C58.576 155.2 55.2667 163.868 48.9992 163.959C45.4619 164.058 41.567 161.24 40.298 157.796C38.5491 153.043 42.3458 147.834 43.6626 142.901C45.4745 136.458 44.2653 126.938 49.8866 123.785C55.4799 120.647 62.3897 126.814 68.3571 129.046C73.3056 130.965 80.0364 131.152 82.6962 135.933Z"/></svg>