<svg xmlns="http://www.w3.org/2000/svg" width="25" height="24" fill="none" viewBox="0 0 25 24"><path stroke="#2E2E2E" stroke-linecap="round" stroke-miterlimit="10" stroke-width="2" d="M15.5 6.84375C15.5 6.84375 16.6419 6.28125 12.5 6.28125C11.0166 6.28125 9.5666 6.72112 8.33323 7.54523C7.09986 8.36934 6.13856 9.54068 5.57091 10.9111C5.00325 12.2816 4.85472 13.7896 5.14411 15.2444C5.4335 16.6993 6.14781 18.0357 7.1967 19.0846C8.2456 20.1334 9.58197 20.8478 11.0368 21.1371C12.4917 21.4265 13.9997 21.278 15.3701 20.7103C16.7406 20.1427 17.9119 19.1814 18.736 17.948C19.5601 16.7147 20 15.2646 20 13.7812"/><path stroke="#2E2E2E" stroke-linecap="round" stroke-linejoin="round" stroke-width="2" d="M12.5 2.71875L16.25 6.46875L12.5 10.2188"/></svg>