<svg width="70" height="70" viewBox="0 0 70 70" fill="none" xmlns="http://www.w3.org/2000/svg">
<mask id="mask0_2979_14273" style="mask-type:alpha" maskUnits="userSpaceOnUse" x="0" y="0" width="70" height="70">
<circle cx="35" cy="35" r="33.5" fill="#FBF001" stroke="#51AA4A" stroke-width="3"/>
</mask>
<g mask="url(#mask0_2979_14273)">
<circle cx="35" cy="35" r="33.5" fill="#FBF001" stroke="#51AA4A" stroke-width="3"/>
<circle cx="35" cy="35" r="33.5" fill="#FBF001" stroke="#51AA4A" stroke-width="3"/>
<path d="M15.2128 35.3757C14.8234 35.287 14.5834 35.2627 14.368 35.178C13.8459 34.9717 13.3325 34.9553 12.8104 35.1603C12.7698 35.176 12.7238 35.18 12.6811 35.1911C11.929 35.3895 11.1555 35.5485 10.6654 36.2355C10.0126 37.1505 9.40854 38.0767 9.3592 39.2544C9.27718 41.227 9.48055 43.1555 10.3247 44.9625C10.7588 45.892 11.2468 46.8162 11.8463 47.6471C12.6891 48.815 13.6719 49.8528 15.1808 50.2535C15.8983 50.444 16.5704 50.8026 17.2625 51.087C17.5826 51.219 17.902 51.3432 18.2527 51.2342C18.2647 51.1698 18.294 51.1159 18.2774 51.0877C17.7426 50.1838 17.6473 49.1854 17.6419 48.1726C17.6353 46.8155 17.5839 45.4479 17.908 44.1191C18.1247 43.231 18.4027 42.3443 18.7774 41.5107C19.2429 40.4736 19.8116 39.4784 20.3824 38.4905C20.7604 37.8369 21.3385 37.3476 21.96 36.9095C22.5381 36.5022 23.0862 36.0536 23.6723 35.6582C24.2297 35.2824 24.4864 34.7681 24.5944 34.131C24.8385 32.6852 25.0712 31.2355 25.3779 29.8016C25.7253 28.1759 26.1527 26.5673 26.5361 24.9488C26.6348 24.531 26.8268 24.1789 27.1262 23.8669C27.4922 23.4847 27.4949 23.3257 27.1222 23.0012C26.7061 22.6393 26.5441 22.144 26.3861 21.6619C26.3234 21.4714 26.4147 21.1758 26.5361 20.9919C27.4849 19.5593 28.5724 18.2383 30.014 17.257C30.5568 16.8879 31.1555 16.5739 31.7696 16.3368C32.6358 16.0024 33.5366 15.7535 34.4281 15.4874C35.0742 15.295 35.2362 15.3902 35.4856 16.0155C35.6396 16.4018 35.787 16.7913 35.967 17.1664C36.1197 17.4849 36.3844 17.6662 36.7645 17.657C37.6526 17.6347 38.5408 17.6222 39.4289 17.6012C40.2724 17.5815 41.1165 17.5316 41.96 17.5408C42.6348 17.548 42.8482 17.904 42.5948 18.5215C42.5374 18.6607 42.4114 18.7711 42.3494 18.909C42.2074 19.2249 42.0787 19.5475 41.958 19.8719C41.7993 20.2982 41.6666 20.7351 41.4959 21.1568C41.4146 21.3571 41.2672 21.5312 41.1572 21.721C40.3697 23.0781 39.2209 23.9208 37.6293 24.1428C37.3659 24.1796 37.1079 24.2512 36.8471 24.3057C35.2269 24.6466 34.1394 25.6326 33.4066 27.0547C33.1412 27.5703 33.1572 28.1253 33.2039 28.6626C33.3559 30.4053 33.4886 32.1545 33.7553 33.8814C33.914 34.9087 34.3094 35.9005 34.6041 36.9062C34.6468 37.0527 34.7068 37.1972 34.7795 37.3318C35.2775 38.2534 35.1709 39.1309 34.6308 40.0039C34.2174 40.6719 34.0567 41.4122 34.0547 42.1998C34.0507 43.8491 34.244 45.4742 34.5974 47.0828C34.6488 47.3173 34.7228 47.5485 34.8075 47.7732C35.0502 48.4156 35.5143 48.7493 36.2224 48.7716C36.4771 48.7795 36.7985 48.7953 36.9678 48.9424C37.2926 49.2242 37.5519 49.5894 37.788 49.9513C37.8433 50.0361 37.742 50.3034 37.6333 50.3934C36.7878 51.0943 35.911 51.7636 34.7481 51.8424C33.5739 51.9225 32.3984 51.9955 31.2222 52.0204C30.5888 52.0336 30.0647 52.1945 29.5913 52.6234C28.2644 53.8261 26.6754 54.4055 24.8818 54.5309C23.1855 54.6498 21.4886 54.6537 19.8556 54.1893C17.3399 53.4734 14.9561 52.4493 12.8058 50.9366C10.7441 49.4863 9.1845 47.632 8.08698 45.3954C7.39553 43.9864 7.04881 42.4888 7.02214 40.9228C7.00947 40.1786 7.02814 39.4338 7.00147 38.6895C6.94812 37.2031 7.52155 35.8999 8.52706 34.9001C9.70659 33.727 11.2208 33.2081 12.9245 33.7546C13.6639 33.9917 14.3714 34.3195 14.9255 34.8877C15.0168 34.9809 15.0642 35.1162 15.2135 35.3731L15.2128 35.3757Z" fill="#221E1F"/>
<path d="M35.8408 62.9227C35.8571 62.6819 35.8952 62.4433 35.9526 62.2084C36.014 61.9581 36.0583 61.7627 36.1413 61.5841C36.8309 60.0939 37.9259 58.8526 38.9532 57.5703C39.0588 57.4385 39.2134 57.3419 39.3462 57.2285C39.3477 57.227 39.3493 57.2256 39.35 57.2241C40.0932 56.1606 41.164 55.4111 42.3063 54.8271C43.4533 54.2408 44.7284 53.869 45.9623 53.443C47.0052 53.0822 48.0761 52.7931 49.1252 52.4462C51.9448 51.5137 53.6991 49.613 54.3467 46.9181C54.801 45.0254 54.5975 43.0814 54.0819 41.1945C53.7752 40.0711 53.1578 39.0742 52.4411 38.1454C51.7624 37.2664 51.2444 36.3486 50.9819 35.2712C50.7808 34.4493 50.3716 33.672 50.0485 32.8771C49.9468 32.6268 49.8109 32.3889 49.7169 32.1364C49.2696 30.9317 49.1679 29.7665 50.0757 28.6708C50.4073 28.2705 50.6558 27.8072 50.9229 27.3607C51.1675 26.953 51.2382 26.4663 51.0922 26.0184C50.9874 25.6971 50.8049 25.506 50.4298 25.5551C49.7123 25.6495 48.9971 25.7183 48.3595 26.1069C48.1382 26.2416 47.8369 26.3016 47.5682 26.3148C47.1831 26.3346 46.7839 26.3221 46.4096 26.2438C46.127 26.1845 45.8443 26.0345 45.6144 25.8618C45.3131 25.6363 45.0965 25.3062 44.7859 25.0969C44.1848 24.6922 43.5589 24.2779 42.7591 24.6578C42.7521 24.6614 42.7467 24.668 42.7459 24.6753C42.7171 24.8744 42.6884 25.0735 42.6597 25.2718C42.6597 25.2733 42.6597 25.274 42.6597 25.2755C42.69 26.1252 42.6325 26.9896 42.7785 27.8218C42.8989 28.5069 42.829 29.1129 42.5657 29.7365C42.2675 30.4435 42.4391 31.0773 42.9843 31.6226C43.1792 31.8173 43.3904 31.9981 43.6086 32.1701C44.0466 32.5148 44.2337 32.9159 44.0559 33.4612C43.8897 33.9728 43.7919 34.5041 43.6358 35.0187C42.9214 37.3696 42.9245 39.64 44.4698 41.7369C44.688 42.0333 44.6414 42.2639 44.424 42.5251C44.1685 42.8318 43.9371 43.1553 43.694 43.4708C42.0959 45.5457 41.3054 47.8249 41.717 50.4093C41.7418 50.5776 41.7674 50.746 41.7923 50.9128V50.9143C41.8109 51.169 41.8303 51.4244 41.8505 51.6989C41.8505 51.7091 41.8598 51.7179 41.8699 51.7201C42.2233 51.7845 42.5339 51.8409 42.9618 51.9185C42.9819 51.9221 42.9889 51.947 42.9726 51.9587C42.7435 52.1337 42.6356 52.2215 42.5215 52.3005C41.279 53.1598 40.0218 54 38.7964 54.8798C37.522 55.7954 36.4745 56.9269 35.4867 58.1082C35.4852 58.1097 35.4844 58.1119 35.4836 58.1134C35.2444 58.6433 35.0022 59.1717 34.7661 59.7023C34.2031 60.9693 33.8707 62.275 33.8777 63.6627C33.8824 64.631 33.7907 65.6001 33.731 66.5684C33.724 66.6767 33.6471 66.7814 33.6005 66.8875C33.5989 66.8912 33.5982 66.8948 33.5989 66.8992C33.6308 67.1854 33.6906 67.4716 33.6882 67.757C33.6813 68.5863 33.6471 69.4148 33.6277 70.244C33.6083 71.0931 33.8808 71.8828 34.2419 72.6418C34.4617 73.1043 34.8352 73.441 35.4129 73.4966C35.9822 73.5508 36.2042 73.4183 36.2074 72.8709C36.2112 72.1185 36.1592 71.3617 36.0676 70.6144C35.9845 69.9381 35.7966 69.2743 35.691 68.6002C35.6335 68.2327 35.6141 67.8602 35.5861 67.4481C35.5698 67.2059 35.5698 66.9629 35.5861 66.7206L35.8432 62.9205L35.8408 62.9227Z" fill="#221E1F"/>
</g>
</svg>
