<svg width="14" height="24" viewBox="0 0 14 24" fill="none" xmlns="http://www.w3.org/2000/svg">
<path d="M13.6898 12.344L2.5438 22.964C2.35782 23.1413 2.11074 23.2402 1.8538 23.2402C1.59686 23.2402 1.34978 23.1413 1.1638 22.964L1.1518 22.952C1.06133 22.8661 0.98929 22.7626 0.940063 22.648C0.890835 22.5333 0.865449 22.4098 0.865449 22.285C0.865449 22.1603 0.890835 22.0368 0.940063 21.9221C0.98929 21.8074 1.06133 21.704 1.1518 21.618L11.6478 11.618L1.1518 1.62205C1.06133 1.5361 0.98929 1.43265 0.940063 1.31798C0.890835 1.20331 0.865449 1.07983 0.865449 0.955046C0.865449 0.830259 0.890835 0.706778 0.940063 0.592112C0.98929 0.477446 1.06133 0.373991 1.1518 0.288046L1.1638 0.276045C1.34978 0.0987549 1.59686 -0.000146866 1.8538 -0.000146866C2.11074 -0.000146866 2.35782 0.0987549 2.5438 0.276045L13.6898 10.896C13.7878 10.9894 13.8659 11.1018 13.9192 11.2262C13.9725 11.3507 14 11.4847 14 11.62C14 11.7554 13.9725 11.8894 13.9192 12.0139C13.8659 12.1383 13.7878 12.2507 13.6898 12.344Z" fill="#2E2E2E"/>
</svg>
