<svg width="14" height="24" viewBox="0 0 14 24" fill="none" xmlns="http://www.w3.org/2000/svg">
<path d="M0.310201 12.344L11.4562 22.964C11.6422 23.1413 11.8893 23.2402 12.1462 23.2402C12.4031 23.2402 12.6502 23.1413 12.8362 22.964L12.8482 22.952C12.9387 22.8661 13.0107 22.7626 13.0599 22.648C13.1092 22.5333 13.1346 22.4098 13.1346 22.285C13.1346 22.1603 13.1092 22.0368 13.0599 21.9221C13.0107 21.8074 12.9387 21.704 12.8482 21.618L2.3522 11.618L12.8482 1.62205C12.9387 1.5361 13.0107 1.43265 13.0599 1.31798C13.1092 1.20331 13.1346 1.07983 13.1346 0.955046C13.1346 0.830259 13.1092 0.706778 13.0599 0.592112C13.0107 0.477446 12.9387 0.373991 12.8482 0.288046L12.8362 0.276045C12.6502 0.0987549 12.4031 -0.000146866 12.1462 -0.000146866C11.8893 -0.000146866 11.6422 0.0987549 11.4562 0.276045L0.310201 10.896C0.212176 10.9894 0.134138 11.1018 0.0808163 11.2262C0.0274948 11.3507 0 11.4847 0 11.62C0 11.7554 0.0274948 11.8894 0.0808163 12.0139C0.134138 12.1383 0.212176 12.2507 0.310201 12.344Z" fill="#2E2E2E"/>
</svg>
