<svg width="26" height="36" viewBox="0 0 26 36" fill="none" xmlns="http://www.w3.org/2000/svg">
<path d="M0.614046 19.1215L22.6777 35.5722C23.0458 35.8468 23.5349 36 24.0435 36C24.5522 36 25.0413 35.8468 25.4094 35.5722L25.4332 35.5536C25.6123 35.4205 25.7549 35.2602 25.8523 35.0826C25.9497 34.905 26 34.7137 26 34.5204C26 34.3271 25.9497 34.1358 25.8523 33.9582C25.7549 33.7806 25.6123 33.6203 25.4332 33.4872L4.65621 17.9969L25.4332 2.51282C25.6123 2.37969 25.7549 2.21944 25.8523 2.04182C25.9497 1.86419 26 1.67292 26 1.47962C26 1.28632 25.9497 1.09505 25.8523 0.917427C25.7549 0.739803 25.6123 0.579552 25.4332 0.446419L25.4094 0.42783C25.0413 0.153202 24.5522 0 24.0435 0C23.5349 0 23.0458 0.153202 22.6777 0.42783L0.614046 16.8785C0.420005 17.0232 0.265527 17.1972 0.159977 17.39C0.0544262 17.5827 0 17.7903 0 18C0 18.2097 0.0544262 18.4173 0.159977 18.6101C0.265527 18.8028 0.420005 18.9768 0.614046 19.1215Z" fill="#F9F9F9"/>
</svg>
