<svg xmlns="http://www.w3.org/2000/svg" width="24" height="25" viewBox="0 0 24 25" fill="none">
  <path d="M15.75 13.5C15.75 13.3011 15.671 13.1103 15.5303 12.9697C15.3897 12.829 15.1989 12.75 15 12.75H9C8.80109 12.75 8.61032 12.829 8.46967 12.9697C8.32902 13.1103 8.25 13.3011 8.25 13.5C8.25 13.6989 8.32902 13.8897 8.46967 14.0303C8.61032 14.171 8.80109 14.25 9 14.25H15C15.1989 14.25 15.3897 14.171 15.5303 14.0303C15.671 13.8897 15.75 13.6989 15.75 13.5ZM15.75 17.5C15.75 17.3011 15.671 17.1103 15.5303 16.9697C15.3897 16.829 15.1989 16.75 15 16.75H9C8.80109 16.75 8.61032 16.829 8.46967 16.9697C8.32902 17.1103 8.25 17.3011 8.25 17.5C8.25 17.6989 8.32902 17.8897 8.46967 18.0303C8.61032 18.171 8.80109 18.25 9 18.25H15C15.1989 18.25 15.3897 18.171 15.5303 18.0303C15.671 17.8897 15.75 17.6989 15.75 17.5Z" fill="#2E2E2E"/>
  <path fill-rule="evenodd" clip-rule="evenodd" d="M7 2.75C6.27065 2.75 5.57118 3.03973 5.05546 3.55546C4.53973 4.07118 4.25 4.77065 4.25 5.5V19.5C4.25 20.2293 4.53973 20.9288 5.05546 21.4445C5.57118 21.9603 6.27065 22.25 7 22.25H17C17.7293 22.25 18.4288 21.9603 18.9445 21.4445C19.4603 20.9288 19.75 20.2293 19.75 19.5V8.468C19.75 8.087 19.626 7.717 19.396 7.413L16.398 3.445C16.2349 3.22912 16.0239 3.054 15.7817 2.93341C15.5395 2.81282 15.2726 2.75004 15.002 2.75H7ZM5.75 5.5C5.75 4.81 6.31 4.25 7 4.25H14.25V8.647C14.25 9.061 14.586 9.397 15 9.397H18.25V19.5C18.25 20.19 17.69 20.75 17 20.75H7C6.31 20.75 5.75 20.19 5.75 19.5V5.5Z" fill="#2E2E2E"/>
</svg>
