<svg xmlns="http://www.w3.org/2000/svg" width="40" height="40" fill="none" viewBox="0 0 40 40"><path fill="#2E2E2E" d="M3.00252 3.57694C6.55117 3.13885 10.036 2.64571 13.5362 2.29248C17.0316 1.94041 20.5424 1.94041 24.0545 2.11243C27.6102 2.2856 31.1175 2.82347 34.633 3.31431C35.3907 3.41982 36.1567 3.47716 36.9854 3.56318V4.04943C36.9854 8.51521 37.0232 12.981 36.9771 17.4456C36.8991 24.8576 32.9828 33.5839 22.0567 36.7067C20.5354 37.1414 19.1559 37.0771 17.6794 36.6184C13.4239 35.2949 9.7842 33.1228 7.08193 29.6112C4.89151 26.7636 3.64203 23.5399 3.1822 20.0294C3.05571 19.0672 3.01434 18.0901 3.01079 17.1188C2.99306 12.7826 3.00252 8.4464 3.00252 4.10907V3.57694ZM5.74627 5.59408C5.74391 5.64798 5.73209 5.76037 5.73209 5.87276C5.73209 9.66419 5.69544 13.4568 5.74273 17.2482C5.74627 22.1065 7.47557 25.5162 8.96501 27.9658C11.211 31.6563 14.6202 32.8856 18.8083 34.0129C19.6181 34.2308 20.3687 34.2205 21.1796 34.0129C30.2179 31.6929 34.2177 25.6773 34.2523 16.8606C34.2665 13.2412 34.2546 9.62061 34.2546 6.00006C34.2546 5.83606 34.2546 5.67092 34.2546 5.58834C25.3192 4.15595 14.6652 4.15365 5.74509 5.59408H5.74627Z"/><path fill="#2E2E2E" d="M29.3403 14.5419C29.1191 14.0197 28.7517 13.6432 28.2775 13.4536L28.2711 13.4512C28.0553 13.3672 27.8255 13.3243 27.5937 13.3246H27.5682C26.4827 13.3408 25.3745 14.2572 24.811 15.6052C24.3978 16.5909 24.3503 17.651 24.6843 18.4412C24.905 18.9637 25.2733 19.3402 25.7494 19.5298L25.7546 19.5318C25.9705 19.6157 26.2003 19.6587 26.4321 19.6585C27.5279 19.6585 28.6477 18.742 29.2215 17.3763C29.6296 16.3918 29.6746 15.3324 29.3403 14.5419ZM25.0031 20.3556C24.377 19.9819 23.7853 19.6284 23.3987 18.9934C22.3324 17.2358 21.6884 16.1748 20 16.1748C18.3116 16.1748 17.666 17.2358 16.5973 18.9934C16.2099 19.6292 15.617 19.9831 14.989 20.3584C14.2689 20.7883 13.5249 21.2325 13.2037 22.1065C13.0788 22.4216 13.0159 22.7576 13.0184 23.0962C13.0184 24.5194 14.1342 25.6773 15.505 25.6773C16.2123 25.6773 16.9651 25.4338 17.7617 25.1761C18.5276 24.9283 19.3194 24.6722 20.004 24.6722C20.6886 24.6722 21.4784 24.9283 22.2415 25.1761C23.0365 25.4323 23.7857 25.6757 24.495 25.6757C25.8638 25.6757 26.9776 24.5178 26.9776 23.0946C26.9787 22.7558 26.9145 22.4198 26.7883 22.105C26.4671 21.2301 25.7228 20.7855 25.0031 20.3556ZM15.776 14.7833C16.2502 15.3744 16.8519 15.6998 17.4704 15.6998C17.5548 15.6998 17.6391 15.6936 17.7226 15.6812C19.0125 15.4927 19.8163 13.929 19.5525 12.1183C19.4421 11.3571 19.1472 10.6481 18.7248 10.1224C18.2514 9.53251 17.6489 9.2075 17.0308 9.2075C16.9464 9.2075 16.8621 9.21372 16.7786 9.22611C15.4887 9.41454 14.6849 10.9782 14.9487 12.7889C15.0587 13.549 15.3536 14.2572 15.776 14.7833ZM22.2778 15.6812C22.3613 15.6936 22.4456 15.6998 22.53 15.6998C23.1489 15.6998 23.7502 15.3744 24.2244 14.7833C24.6464 14.2572 24.9397 13.549 25.0513 12.7881C25.3151 10.9782 24.5113 9.41454 23.2214 9.22531C23.1379 9.21293 23.0536 9.20671 22.9692 9.20671C22.3511 9.2075 21.7486 9.53251 21.2752 10.1224C20.8528 10.6481 20.5579 11.3571 20.4479 12.1191C20.1841 13.929 20.9879 15.4927 22.2778 15.6812ZM14.2454 19.5318L14.2509 19.5298C14.7263 19.3402 15.0942 18.9641 15.3145 18.442C15.6485 17.6502 15.6014 16.5913 15.189 15.6056C14.618 14.2414 13.4986 13.3246 12.4039 13.3246C12.1721 13.3242 11.9423 13.3672 11.7265 13.4512L11.7209 13.4532C11.2467 13.6412 10.8789 14.0189 10.6585 14.5411C10.3246 15.3328 10.3716 16.3918 10.7841 17.3775C11.3551 18.7416 12.4745 19.6585 13.5691 19.6585C13.8005 19.6587 14.0299 19.6157 14.2454 19.5318Z"/></svg>