<svg xmlns="http://www.w3.org/2000/svg" width="40" height="40" fill="none" viewBox="0 0 40 40"><path fill="#2E2E2E" stroke="#2E2E2E" d="M30.0816 8.59172C30.0439 8.56106 29.9148 8.45645 29.7964 8.35554C28.1822 7.02139 26.0394 6.21225 23.9509 6.15057C21.7773 6.08774 19.7271 6.76087 17.9328 8.13094C17.6045 8.38372 16.7905 9.18693 16.5411 9.50462C15.7495 10.5228 15.2583 11.4562 14.8997 12.6238C14.0957 15.2363 14.4846 18.0475 15.9838 20.4603C16.1831 20.7787 16.5573 21.2998 16.6669 21.4095L16.7137 21.4562L15.0772 23.0927L13.4408 24.7291L12.1229 23.4043L10.8068 22.0777L10.1645 22.72L9.52037 23.3641L10.8417 24.6854L12.1631 26.0068L10.1241 28.0458L8.08507 30.0848L8.75024 30.75L9.41542 31.4152L11.4544 29.3762L13.4934 27.3372L14.8148 28.6585L16.1362 29.9799L16.7803 29.3358L17.4226 28.6935L16.096 27.3773L14.7711 26.0595L16.4076 24.423L18.044 22.7866L18.0908 22.8333C18.2004 22.943 18.7216 23.3171 19.04 23.5165C21.4528 25.0156 24.2639 25.4045 26.8764 24.6006C28.044 24.242 28.9775 23.7507 29.9956 22.9591C30.3133 22.7098 31.1165 21.8958 31.3693 21.5675C32.0962 20.6141 32.5701 19.7123 32.9139 18.6315C33.8703 15.6219 33.2469 12.3801 31.2132 9.78638C31.0328 9.55693 30.2393 8.71799 30.0816 8.59172ZM29.7592 10.8737C30.5925 11.91 31.1553 13.1414 31.3963 14.4501C31.7329 16.2708 31.3525 18.1937 30.3365 19.8066C29.2284 21.5618 27.352 22.7623 25.1996 23.0953C24.7978 23.1555 24.2165 23.1868 23.8154 23.1672C21.2082 23.0454 18.8178 21.6316 17.4828 19.425C16.302 17.4741 16.0128 15.2177 16.6785 13.139C17.4207 10.8183 19.0884 9.12904 21.3893 8.36704C23.5224 7.66132 25.8214 7.94399 27.7922 9.15522C28.2161 9.41808 28.4328 9.57885 28.9477 10.0132C29.0841 10.1285 29.5986 10.6746 29.7592 10.8737Z"/></svg>