<svg width="40" height="40" viewBox="0 0 40 40" fill="none" xmlns="http://www.w3.org/2000/svg">
<path d="M32.7041 7.0232C32.617 7.03164 32.1199 7.08439 31.5994 7.13502C31.0789 7.18776 30.2716 7.27004 29.8043 7.31645C29.3369 7.36287 28.0028 7.49789 26.8407 7.61392C25.6786 7.72996 24.3658 7.86076 23.9239 7.90506C23.4841 7.94936 23.1187 7.98945 23.1145 7.99367C23.1038 8.00844 23.3035 9.92826 23.3184 9.94303C23.3269 9.95147 23.5797 9.93248 23.8814 9.90295C24.1831 9.87341 25.5193 9.73839 26.8513 9.60548C28.1833 9.47257 29.5069 9.33966 29.7915 9.31223C30.0783 9.2827 30.3141 9.2616 30.3184 9.26371C30.3205 9.26793 29.6853 9.91139 28.9056 10.6962C24.7821 14.846 23.7284 15.9029 23.7114 15.9029C23.7029 15.9029 23.5818 15.8186 23.4459 15.7173C22.1457 14.7405 20.6225 14.0844 18.991 13.7932C18.0329 13.6245 16.8963 13.6013 15.9318 13.7299C13.6693 14.0359 11.5767 15.0591 10.0047 16.6287C8.9637 17.6688 8.20316 18.8439 7.6678 20.2384C7.15369 21.5823 6.92851 23.0506 7.01986 24.4367C7.2323 27.6266 8.93396 30.5654 11.5597 32.2806C11.9485 32.5337 12.127 32.6392 12.5115 32.8354C14.57 33.8945 16.8517 34.2405 19.0738 33.8354C20.7351 33.5316 22.3688 32.7932 23.6647 31.7595C24.3211 31.2362 24.865 30.6856 25.3664 30.0379C26.522 28.5422 27.2273 26.7911 27.4483 24.8692C27.4929 24.4704 27.512 23.5422 27.4802 23.1498C27.3697 21.7384 27.0192 20.4789 26.3988 19.2468C26.129 18.7088 25.6956 18.0253 25.3324 17.5612L25.1348 17.3122L25.4726 16.9726C25.6595 16.7848 26.1928 16.2468 26.6623 15.7764C27.5524 14.8818 30.8027 11.6118 31.4061 11.0042C31.5994 10.8101 31.7566 10.6519 31.7587 10.6561C31.7609 10.6582 31.7502 10.789 31.7354 10.9451C31.7205 11.1013 31.6886 11.4473 31.6653 11.7152C31.6419 11.981 31.6015 12.4156 31.5782 12.6793C31.5548 12.9451 31.5166 13.3755 31.4932 13.6392C31.353 15.2025 31.1533 17.4683 31.149 17.5485L31.1427 17.6413L32.1305 17.7299C32.6744 17.7764 33.1205 17.8143 33.1226 17.8143C33.1247 17.8122 33.1757 17.2658 33.2352 16.5991C33.2947 15.9325 33.3605 15.1772 33.3839 14.9219C33.4073 14.6667 33.454 14.1308 33.4901 13.7299C33.5241 13.3291 33.5645 12.9029 33.5751 12.7806C33.5857 12.6582 33.624 12.2321 33.6601 11.8312C33.6962 11.4304 33.7323 11.0042 33.7451 10.8818C33.7557 10.7595 33.7961 10.3333 33.83 9.93248C33.8662 9.53164 33.9193 8.94514 33.9469 8.62869C33.9873 8.20253 34 7.91561 34 7.52742V7L33.4328 7.00211C33.1184 7.00422 32.7912 7.01266 32.7041 7.0232ZM18.1943 15.6793C19.5816 15.8692 20.7755 16.308 21.8589 17.0274C23.6604 18.2236 24.9054 20.0886 25.343 22.2426C25.4641 22.8481 25.4917 23.1329 25.4917 23.8354C25.4896 24.4958 25.4683 24.7363 25.3642 25.3017C24.9776 27.3734 23.7624 29.2848 22.0778 30.4662C21.0155 31.2109 19.8322 31.6962 18.5788 31.905C18.0668 31.9894 17.8268 32.0084 17.2489 32.0084C16.4268 32.0084 15.8171 31.9261 15.0268 31.7046C11.7254 30.7763 9.41195 28.0316 9.03593 24.5949C8.97645 24.0633 9.00194 23.1962 9.09329 22.6118C9.43957 20.3987 10.6696 18.405 12.4584 17.1561C13.716 16.2785 15.099 15.7827 16.686 15.6413C16.9112 15.6223 17.9606 15.6477 18.1943 15.6793Z" fill="#2E2E2E" stroke="#2E2E2E"/>
</svg>
