<svg width="40" height="40" viewBox="0 0 40 40" fill="none" xmlns="http://www.w3.org/2000/svg">
<path d="M30.1894 29.5462C30.0648 29.4141 29.9969 29.2394 30.0001 29.059C30.0033 28.8785 30.0772 28.7063 30.2064 28.5785C30.3359 28.4511 30.5104 28.3782 30.6933 28.375C30.8761 28.3719 31.0531 28.4389 31.187 28.5618L33.2763 30.6234V9.37664L31.187 11.4382C31.0531 11.5611 30.8761 11.6281 30.6933 11.625C30.5104 11.6218 30.3359 11.5489 30.2064 11.4215C30.0772 11.2937 30.0033 11.1215 30.0001 10.941C29.9969 10.7606 30.0648 10.5859 30.1894 10.4538L33.4833 7.20368C33.6156 7.07326 33.795 7 33.9821 7C34.1691 7 34.3485 7.07326 34.4809 7.20368L37.7748 10.4538C37.8677 10.539 37.9356 10.6472 37.9714 10.7673C38.0071 10.8873 38.0094 11.0146 37.978 11.1358C37.9466 11.257 37.8827 11.3676 37.7929 11.456C37.7031 11.5443 37.5909 11.6071 37.468 11.6378C37.3453 11.6689 37.2163 11.6667 37.0948 11.6316C36.9732 11.5964 36.8635 11.5296 36.7772 11.4382L34.6879 9.37664V30.6234L36.7772 28.5618C36.8635 28.4702 36.9732 28.4031 37.0948 28.3678C37.2165 28.3325 37.3455 28.3303 37.4683 28.3613C37.5912 28.3922 37.7033 28.4554 37.7928 28.5439C37.8823 28.6325 37.946 28.7433 37.9771 28.8646C38.0085 28.9856 38.0063 29.1128 37.9707 29.2328C37.9351 29.3527 37.8674 29.461 37.7748 29.5462L34.4809 32.7963C34.3485 32.9267 34.1691 33 33.9821 33C33.795 33 33.6156 32.9267 33.4833 32.7963L30.1894 29.5462Z" fill="#2E2E2E" stroke="#2E2E2E" stroke-width="0.5"/>
<path d="M1 28.7868C1.19383 28.3487 1.53976 28.1915 2.02618 28.2129C2.6045 28.2383 3.18546 28.2302 3.76483 28.216C4.55441 28.1971 5.32708 28.2409 6.06331 28.6865C6.06965 28.5583 6.07652 28.4713 6.07704 28.3844C6.08549 27.0902 6.04536 25.7939 6.10979 24.5028C6.25133 21.6545 7.58489 19.3861 9.86859 17.6111C10.3534 17.2342 10.8567 16.8791 11.3421 16.5021C12.8943 15.2969 13.677 13.7301 13.7034 11.8101C13.7346 9.54989 15.3111 7.64472 17.5916 7.13498C17.9645 7.05155 18.3553 7.01899 18.7388 7.00983C19.5289 6.99101 20.3195 7.01238 21.1096 7.00017C21.4508 6.99508 21.7133 7.107 21.9499 7.3405C22.6185 7.99981 23.2966 8.65097 23.9822 9.29502C24.0704 9.37794 24.2204 9.43949 24.3429 9.44102C25.2471 9.45323 26.1518 9.44662 27.0565 9.44814C27.6839 9.44916 27.9897 9.74524 27.9871 10.3557C27.9844 10.9728 28.0336 11.597 27.9559 12.2059C27.7394 13.8995 26.3667 15.0365 24.5869 15.0543C24.0429 15.0599 23.4994 15.0553 22.91 15.0553V15.3631C22.91 17.1904 22.8984 19.0177 22.9132 20.8446C22.9301 22.9334 22.1617 24.6686 20.4859 26.0168C20.4183 26.0712 20.3697 26.1851 20.3681 26.2721C20.358 26.8979 20.3681 27.5241 20.3591 28.1498C20.357 28.2938 20.4161 28.3523 20.5445 28.4093C21.5337 28.8503 22.0354 29.6053 22.0592 30.6517C22.0692 31.1086 22.0449 31.5659 22.0661 32.0217C22.0877 32.4908 21.914 32.8235 21.4524 33H3.89898C3.8599 32.9842 3.8224 32.9613 3.78173 32.9547C2.764 32.7782 1.97231 32.2679 1.46794 31.4026C1.25404 31.0358 1.15263 30.6075 1 30.2076C1 29.7335 1 29.2599 1 28.7857V28.7868ZM20.4795 31.4647C20.4795 31.1915 20.4843 30.931 20.4785 30.6706C20.4658 30.1115 20.1568 29.795 19.5812 29.7421C19.0847 29.6964 18.7879 29.4089 18.7842 28.9312C18.7757 27.8736 18.7805 26.816 18.7826 25.7583C18.7831 25.4801 18.8888 25.2476 19.1322 25.0832C20.6755 24.0419 21.3536 22.5986 21.3346 20.8013C21.3124 18.6947 21.3293 16.5881 21.3293 14.4815C21.3293 13.7937 21.6013 13.5352 22.3169 13.5322C23.1599 13.5286 24.0044 13.5464 24.8457 13.5078C25.5545 13.4747 26.1872 12.9609 26.3308 12.296C26.4222 11.8742 26.4021 11.4306 26.4338 10.9718C25.5677 10.9718 24.7617 10.9636 23.9558 10.9758C23.6236 10.9809 23.3679 10.8736 23.1377 10.6467C22.4616 9.98179 21.7761 9.32605 21.0874 8.67285C21.014 8.60315 20.8994 8.53549 20.8027 8.53448C20.0475 8.5243 19.2912 8.51107 18.537 8.53549C16.9531 8.58687 15.5218 9.79611 15.3486 11.3111C15.2461 12.2059 15.2757 13.1186 15.3027 14.0216C15.3174 14.5237 15.6433 14.8849 16.1324 15.0726C17.0001 15.4058 17.917 14.7989 17.9302 13.8756C17.9434 12.9451 17.9291 12.0141 17.936 11.0837C17.9397 10.6111 18.2798 10.2682 18.7245 10.2652C19.1729 10.2621 19.5114 10.6014 19.513 11.0761C19.5167 12.0487 19.5283 13.0224 19.5051 13.9946C19.4776 15.1489 18.7007 16.1419 17.5663 16.527C16.453 16.905 15.2092 16.5881 14.4254 15.7268C14.3747 15.6714 14.3219 15.6174 14.2881 15.5813C13.9485 16.0051 13.6659 16.4701 13.2741 16.8216C12.5051 17.5114 11.6923 18.1595 10.8663 18.7863C8.73414 20.403 7.69158 22.5254 7.66464 25.1173C7.64352 27.139 7.66042 29.1617 7.66042 31.1833C7.66042 31.2739 7.66042 31.3645 7.66042 31.4647H16.087C15.9037 30.5881 14.8585 29.795 13.8371 29.7467C13.1035 29.7121 12.8748 29.4634 12.8542 28.7511C12.841 28.2979 12.8595 27.8197 12.7174 27.399C12.3355 26.2696 11.462 25.7192 10.2404 25.6505C9.76138 25.6235 9.45558 25.2852 9.47935 24.8482C9.50153 24.4351 9.85169 24.1213 10.3128 24.138C10.618 24.1492 10.928 24.1798 11.2249 24.2474C13.0908 24.6753 14.3795 26.2177 14.4439 28.0735C14.4465 28.1519 14.484 28.2785 14.5384 28.2979C14.8125 28.3966 15.0972 28.4678 15.3961 28.5538C15.3961 28.4418 15.3961 28.3498 15.3961 28.2572C15.3961 27.428 15.3935 26.5987 15.3972 25.7695C15.3988 25.3636 15.6349 25.0604 15.9998 24.9764C16.5179 24.8569 16.9742 25.216 16.9758 25.7568C16.98 27.0342 16.9769 28.3121 16.9785 29.5895C16.9785 29.6724 16.9637 29.7767 17.007 29.8357C17.374 30.3302 17.6186 30.8761 17.7554 31.4637H20.4811L20.4795 31.4647ZM2.59077 29.7574C2.57809 30.5642 3.13159 31.2749 3.92275 31.4189C4.3141 31.4901 4.72447 31.4662 5.12691 31.4764C5.43905 31.484 5.75118 31.4779 6.06067 31.4779C6.09606 30.6141 5.457 29.8408 4.59877 29.7686C3.93965 29.7131 3.27102 29.7574 2.59077 29.7574Z" fill="#2E2E2E" stroke="#2E2E2E" stroke-width="0.5"/>
</svg>
