<svg xmlns="http://www.w3.org/2000/svg" width="26" height="36" fill="none" viewBox="0 0 26 36"><path fill="#F9F9F9" d="M25.386 19.1215L3.32232 35.5722C2.95417 35.8468 2.46507 36 1.95645 36C1.44783 36 0.958733 35.8468 0.59059 35.5722L0.566833 35.5536C0.387747 35.4205 0.245146 35.2602 0.147699 35.0826C0.0502529 34.905 0 34.7137 0 34.5204C0 34.3271 0.0502529 34.1358 0.147699 33.9582C0.245146 33.7806 0.387747 33.6203 0.566833 33.4872L21.3438 17.9969L0.566833 2.51282C0.387747 2.37969 0.245146 2.21944 0.147699 2.04182C0.0502529 1.86419 0 1.67292 0 1.47962C0 1.28632 0.0502529 1.09505 0.147699 0.917427C0.245146 0.739803 0.387747 0.579552 0.566833 0.446419L0.59059 0.42783C0.958733 0.153202 1.44783 0 1.95645 0C2.46507 0 2.95417 0.153202 3.32232 0.42783L25.386 16.8785C25.58 17.0232 25.7345 17.1972 25.84 17.39C25.9456 17.5827 26 17.7903 26 18C26 18.2097 25.9456 18.4173 25.84 18.6101C25.7345 18.8028 25.58 18.9768 25.386 19.1215Z"/></svg>