<svg width="27" height="47" viewBox="0 0 27 47" fill="none" xmlns="http://www.w3.org/2000/svg">
<path d="M26.3796 25.1881L4.0876 46.4281C3.71565 46.7827 3.22148 46.9805 2.7076 46.9805C2.19372 46.9805 1.69955 46.7827 1.3276 46.4281L1.3036 46.4041C1.12266 46.2322 0.97858 46.0253 0.880125 45.796C0.78167 45.5666 0.730898 45.3197 0.730898 45.0701C0.730898 44.8205 0.78167 44.5736 0.880125 44.3442C0.97858 44.1149 1.12266 43.908 1.3036 43.7361L22.2956 23.7361L1.3036 3.74409C1.12266 3.5722 0.97858 3.36529 0.880125 3.13596C0.78167 2.90663 0.730898 2.65966 0.730898 2.41009C0.730898 2.16052 0.78167 1.91356 0.880125 1.68422C0.97858 1.45489 1.12266 1.24798 1.3036 1.07609L1.3276 1.05209C1.69955 0.69751 2.19372 0.499706 2.7076 0.499706C3.22148 0.499706 3.71565 0.69751 4.0876 1.05209L26.3796 22.2921C26.5756 22.4789 26.7317 22.7035 26.8384 22.9524C26.945 23.2013 27 23.4693 27 23.7401C27 24.0109 26.945 24.2788 26.8384 24.5277C26.7317 24.7766 26.5756 25.0013 26.3796 25.1881Z" fill="#F9F9F9"/>
</svg>
