<svg width="27" height="47" viewBox="0 0 27 47" fill="none" xmlns="http://www.w3.org/2000/svg">
<path d="M0.620401 25.1881L22.9124 46.4281C23.2844 46.7827 23.7785 46.9805 24.2924 46.9805C24.8063 46.9805 25.3004 46.7827 25.6724 46.4281L25.6964 46.4041C25.8773 46.2322 26.0214 46.0253 26.1199 45.796C26.2183 45.5666 26.2691 45.3197 26.2691 45.0701C26.2691 44.8205 26.2183 44.5736 26.1199 44.3442C26.0214 44.1149 25.8773 43.908 25.6964 43.7361L4.7044 23.7361L25.6964 3.74409C25.8773 3.5722 26.0214 3.36529 26.1199 3.13596C26.2183 2.90663 26.2691 2.65966 26.2691 2.41009C26.2691 2.16052 26.2183 1.91356 26.1199 1.68422C26.0214 1.45489 25.8773 1.24798 25.6964 1.07609L25.6724 1.05209C25.3004 0.69751 24.8063 0.499706 24.2924 0.499706C23.7785 0.499706 23.2844 0.69751 22.9124 1.05209L0.620401 22.2921C0.424352 22.4789 0.268276 22.7035 0.161633 22.9524C0.0549895 23.2013 0 23.4693 0 23.7401C0 24.0109 0.0549895 24.2788 0.161633 24.5277C0.268276 24.7766 0.424352 25.0013 0.620401 25.1881Z" fill="#F9F9F9"/>
</svg>
