<svg xmlns="http://www.w3.org/2000/svg" width="140" height="105" fill="none" viewBox="0 0 140 105"><path fill="#F9F9F9" d="M24.5855 16.0074C24.5855 18.5465 23.9536 20.8649 22.69 22.9624C21.4263 25.0231 19.7353 26.7526 17.6168 28.151C18.7318 28.3718 19.6981 28.7581 20.5158 29.3101C21.3334 29.8253 22.0024 30.4693 22.5227 31.242C23.0802 32.0148 23.4891 32.898 23.7492 33.8915C24.0466 34.8483 24.1952 35.8603 24.1952 36.9274C24.1952 39.0249 23.6935 40.8649 22.69 42.4472C21.7237 43.9927 20.46 45.2807 18.899 46.311C17.338 47.3046 15.5912 48.059 13.6586 48.5742C11.7631 49.0525 9.86764 49.2917 7.97216 49.2917C6.9315 49.2917 5.89085 49.2181 4.85019 49.0709C3.80954 48.9237 2.82463 48.6661 1.89548 48.2982C1.56098 48.1878 1.28223 47.7462 1.05924 46.9734C0.83624 46.1638 0.650409 45.1887 0.501744 44.0479C0.390246 42.9072 0.29733 41.6744 0.222997 40.3497C0.148665 39.0249 0.0929156 37.7554 0.0557493 36.541C0.0185831 35.3267 0 34.2595 0 33.3396C0 32.4196 0 31.7756 0 31.4076C0 30.1197 0 28.8317 0 27.5438C0 26.219 0.0371662 24.9127 0.111499 23.6247C0.111499 23.2935 0.111499 22.7784 0.111499 22.0792C0.148665 21.38 0.167248 20.6073 0.167248 19.7609C0.204414 18.8777 0.24158 17.9578 0.278747 17.001C0.353079 16.0442 0.427412 15.1611 0.501744 14.3515C0.613243 13.5051 0.743324 12.7876 0.891989 12.1988C1.07782 11.61 1.28224 11.242 1.50523 11.0948C2.36006 10.5429 3.3078 10.0277 4.34845 9.54929C5.3891 9.03411 6.46693 8.59254 7.58191 8.22455C8.6969 7.85656 9.81189 7.56217 10.9269 7.34138C12.0419 7.12059 13.1011 7.0102 14.1046 7.0102C15.4797 7.0102 16.7991 7.21258 18.0628 7.61736C19.3636 7.98535 20.4786 8.55574 21.4078 9.32851C22.3741 10.1013 23.136 11.058 23.6935 12.1988C24.2881 13.3028 24.5855 14.5723 24.5855 16.0074ZM15.3311 18.9329C15.3311 18.3073 15.1267 17.8474 14.7178 17.553C14.3462 17.2586 13.8444 17.1114 13.2126 17.1114C12.6923 17.1114 12.1348 17.2218 11.5401 17.4426C10.9826 17.6634 10.4995 17.9578 10.0906 18.3257C9.97913 18.4361 9.86764 18.7489 9.75614 19.2641C9.68181 19.7793 9.60747 20.3681 9.53314 21.0304C9.49598 21.656 9.45881 22.2632 9.42164 22.852C9.42164 23.4039 9.42164 23.7719 9.42164 23.9559C9.42164 24.0295 9.42164 24.1583 9.42164 24.3423C9.42164 24.4895 9.42164 24.6551 9.42164 24.8391C9.45881 25.0231 9.49598 25.1887 9.53314 25.3359C9.57031 25.4831 9.62605 25.5567 9.70039 25.5567C10.3322 25.5567 10.9826 25.3359 11.6516 24.8943C12.3206 24.4159 12.9153 23.8455 13.4356 23.1832C13.9931 22.484 14.4391 21.748 14.7736 20.9752C15.1452 20.2025 15.3311 19.5217 15.3311 18.9329ZM15.1081 34.8851C15.1081 34.2595 14.8851 33.8179 14.4391 33.5603C13.9931 33.3027 13.4913 33.174 12.9339 33.174C12.4135 33.174 11.856 33.3027 11.2614 33.5603C10.7039 33.7811 10.2393 34.0571 9.86763 34.3883C9.75614 34.4619 9.66322 34.6459 9.58889 34.9403C9.55172 35.2347 9.51456 35.5659 9.47739 35.9339C9.47739 36.265 9.45881 36.5962 9.42164 36.9274C9.42164 37.2218 9.42164 37.4242 9.42164 37.5346C9.42164 37.6082 9.42164 37.7554 9.42164 37.9762C9.42164 38.197 9.42164 38.4362 9.42164 38.6937C9.45881 38.9145 9.49598 39.1353 9.53314 39.3561C9.60747 39.5401 9.68181 39.6321 9.75614 39.6321C10.2765 39.6321 10.8525 39.4849 11.4844 39.1905C12.1162 38.8961 12.6923 38.5281 13.2126 38.0866C13.7701 37.645 14.2161 37.1482 14.5506 36.5962C14.9222 36.0074 15.1081 35.4371 15.1081 34.8851Z"/><path fill="#F9F9F9" d="M46.3835 11.15C46.3835 11.8492 46.2162 12.4748 45.8817 13.0268C45.5844 13.5787 45.1756 14.0571 44.6552 14.4619C44.1349 14.8299 43.5588 15.1427 42.927 15.4003C42.2952 15.6578 41.6819 15.8418 41.0873 15.9522C41.0129 20.1105 40.8457 24.1215 40.5855 27.9854C40.3625 31.8492 39.9909 35.8418 39.4705 39.9633H39.805C40.3997 39.9633 40.9758 40.0369 41.5333 40.1841C42.1279 40.2945 42.6483 40.5153 43.0943 40.8465C43.5774 41.1408 43.9491 41.5272 44.2092 42.0056C44.5066 42.4472 44.6552 42.9992 44.6552 43.6615C44.6552 44.5079 44.3765 45.2439 43.819 45.8695C43.2987 46.495 42.5925 47.0286 41.7005 47.4702C40.8457 47.9118 39.8794 48.2798 38.8015 48.5742C37.7237 48.8685 36.6459 49.0893 35.5681 49.2365C34.4903 49.4205 33.4682 49.5493 32.5019 49.6229C31.5355 49.6965 30.7551 49.7333 30.1604 49.7333C29.7144 49.7333 29.1569 49.7149 28.4879 49.6781C27.8561 49.6413 27.2428 49.5309 26.6482 49.3469C26.0907 49.1629 25.6075 48.8869 25.1987 48.519C24.7899 48.151 24.5855 47.6542 24.5855 47.0286C24.5855 46.2559 24.7527 45.5751 25.0872 44.9863C25.3845 44.3607 25.7934 43.8087 26.3137 43.3304C26.834 42.852 27.4101 42.4656 28.0419 42.1712C28.7109 41.8768 29.3799 41.656 30.0489 41.5088C30.3091 39.4849 30.5506 37.4794 30.7736 35.4923C30.9966 33.4683 31.1453 31.426 31.2196 29.3653C31.294 27.2678 31.3683 25.2071 31.4426 23.1832C31.517 21.1224 31.5913 19.0617 31.6656 17.001C31.4055 17.0378 31.1639 17.0746 30.9409 17.1114C30.7179 17.1114 30.5135 17.1114 30.3276 17.1114C29.8073 17.1114 29.2498 17.0562 28.6552 16.9458C28.0605 16.8354 27.503 16.6514 26.9827 16.3938C26.4624 16.0994 26.0164 15.7498 25.6447 15.3451C25.3102 14.9403 25.143 14.4251 25.143 13.7995C25.143 12.5484 25.6633 11.518 26.7039 10.7084C27.7818 9.89888 29.0454 9.27331 30.4949 8.83172C31.9815 8.39014 33.4868 8.09576 35.0106 7.94856C36.5344 7.76457 37.7609 7.67256 38.69 7.67256C39.2104 7.67256 39.898 7.70937 40.7528 7.78297C41.6076 7.85657 42.4438 8.02215 43.2615 8.27974C44.1163 8.53733 44.8411 8.88692 45.4357 9.32851C46.0676 9.77009 46.3835 10.3773 46.3835 11.15Z"/><path fill="#F9F9F9" d="M72.1397 35.3819C71.8052 37.0378 71.2663 38.7673 70.5229 40.5705C69.8168 42.3368 68.8876 43.9559 67.7355 45.4279C66.6205 46.8998 65.2825 48.0958 63.7215 49.0157C62.1605 49.9725 60.3766 50.4509 58.3696 50.4509C56.8829 50.4509 55.5449 50.1565 54.3556 49.5677C53.1663 48.9789 52.0885 48.1878 51.1222 47.1942C50.1558 46.2006 49.3196 45.0599 48.6134 43.7719C47.9073 42.484 47.3126 41.1592 46.8295 39.7977C46.3835 38.3994 46.049 37.0194 45.826 35.6579C45.603 34.2963 45.4915 33.0268 45.4915 31.8492C45.4915 30.1933 45.6401 28.427 45.9375 26.5502C46.272 24.6367 46.7551 22.76 47.387 20.9201C48.0188 19.0433 48.8178 17.2586 49.7842 15.5659C50.7505 13.8363 51.8841 12.3276 53.1849 11.0396C54.5229 9.71489 56.0095 8.66613 57.6448 7.89336C59.3173 7.08379 61.1756 6.679 63.2198 6.679C64.5206 6.679 65.7285 6.93659 66.8435 7.45177C67.9585 7.93015 68.9248 8.59253 69.7424 9.4389C70.5601 10.2485 71.1919 11.2236 71.6379 12.3644C72.1211 13.5051 72.3627 14.7011 72.3627 15.9522V16.449C72.3627 17.1114 72.3255 17.9394 72.2512 18.9329C72.214 19.8897 72.0467 20.8097 71.7494 21.6928C71.4521 22.576 71.0061 23.3487 70.4114 24.0111C69.8168 24.6367 68.9805 24.9495 67.9027 24.9495C66.6019 24.9495 65.617 24.6551 64.948 24.0663C64.279 23.4775 63.9445 22.5024 63.9445 21.1408C63.9445 20.6257 63.9631 20.1105 64.0003 19.5953C64.0374 19.0801 64.056 18.5649 64.056 18.0498C64.056 17.277 63.9259 16.6882 63.6658 16.2834C63.4056 15.8418 62.8667 15.6211 62.049 15.6211C61.1199 15.6211 60.2836 15.9154 59.5403 16.5042C58.797 17.093 58.1466 17.8658 57.5891 18.8225C57.0316 19.7793 56.5484 20.8648 56.1396 22.0792C55.7308 23.2936 55.3963 24.5263 55.1361 25.7775C54.8759 26.9918 54.6901 28.1694 54.5786 29.3101C54.4671 30.4509 54.4114 31.426 54.4114 32.2356C54.4114 32.898 54.4485 33.6707 54.5229 34.5539C54.5972 35.4003 54.7459 36.2282 54.9689 37.0378C55.229 37.8106 55.6007 38.4729 56.0839 39.0249C56.567 39.5769 57.1988 39.8529 57.9793 39.8529C59.3173 39.8529 60.3951 39.4481 61.2128 38.6385C62.0305 37.7922 62.5879 36.725 62.8853 35.4371C62.3649 35.3635 61.8446 35.2531 61.3243 35.1059C60.8411 34.9219 60.3766 34.6827 59.9306 34.3883C59.5217 34.0571 59.1872 33.6707 58.9271 33.2292C58.6669 32.7508 58.5368 32.1988 58.5368 31.5732C58.5368 30.4325 58.9271 29.5493 59.7076 28.9237C60.4881 28.2614 61.3986 27.7646 62.4393 27.4334C63.5171 27.1022 64.6135 26.8998 65.7285 26.8262C66.8435 26.7158 67.7355 26.6606 68.4045 26.6606C68.8876 26.6606 69.5938 26.6974 70.5229 26.771C71.4521 26.8446 72.3627 27.0102 73.2547 27.2678C74.1838 27.4886 74.9829 27.8198 75.6519 28.2614C76.3209 28.7029 76.6554 29.2733 76.6554 29.9725C76.6554 31.3708 76.2651 32.5852 75.4846 33.6155C74.7413 34.6091 73.6263 35.1979 72.1397 35.3819Z"/><path fill="#F9F9F9" d="M26.5367 95.6164C26.5367 96.5363 26.1465 97.4011 25.366 98.2107C24.6226 99.0202 23.6377 99.7562 22.4113 100.419C21.2219 101.081 19.8839 101.67 18.3973 102.185C16.9106 102.663 15.4426 103.068 13.9931 103.399C12.5436 103.767 11.1685 104.043 9.86763 104.227C8.60398 104.411 7.6005 104.503 6.85717 104.503C6.15101 104.503 5.38911 104.43 4.57145 104.282C3.79096 104.172 3.14056 103.896 2.62023 103.454C2.3229 103.234 2.06273 102.737 1.83974 101.964C1.61674 101.191 1.39374 100.271 1.17074 99.2042C0.984909 98.1371 0.817662 96.9963 0.668997 95.782C0.520332 94.5308 0.390246 93.3165 0.278747 92.1389C0.204415 90.9614 0.130092 89.8758 0.0557596 88.8822C0.0185934 87.8887 0 87.1159 0 86.5639C0 85.644 0.0185934 84.54 0.0557596 83.2521C0.130092 81.9273 0.223 80.529 0.334499 79.057C0.445997 77.5483 0.59466 76.0211 0.780491 74.4756C0.966322 72.9301 1.17074 71.4765 1.39374 70.115C1.6539 68.7166 1.95123 67.4655 2.28572 66.3615C2.65738 65.2576 3.04764 64.3928 3.45647 63.7672C4.16263 62.7737 5.05461 62.2769 6.13243 62.2769C6.87576 62.2769 7.50759 62.5345 8.02791 63.0497C8.54824 63.528 8.95707 64.172 9.2544 64.9816C9.58889 65.7544 9.83048 66.6375 9.97915 67.6311C10.165 68.5878 10.2951 69.5446 10.3694 70.5014C10.4437 71.4581 10.4809 72.3413 10.4809 73.1509C10.4809 73.9604 10.4809 74.6044 10.4809 75.0828C10.4809 77.9531 10.4065 80.805 10.2579 83.6385C10.1464 86.4352 10.0906 89.2686 10.0906 92.1389V94.2916C11.7631 93.7765 13.5843 93.2981 15.5541 92.8565C17.5239 92.3781 19.4008 92.1389 21.1848 92.1389C21.8166 92.1389 22.4484 92.1757 23.0802 92.2493C23.7492 92.3229 24.3253 92.4885 24.8085 92.7461C25.3288 92.9669 25.7376 93.3165 26.035 93.7948C26.3695 94.2364 26.5367 94.8436 26.5367 95.6164Z"/><path fill="#F9F9F9" d="M56.0839 95.0644C56.0839 95.8004 56.0095 96.6835 55.8609 97.7139C55.7494 98.7442 55.5078 99.7378 55.1361 100.695C54.7645 101.615 54.2627 102.406 53.6309 103.068C52.9991 103.694 52.1628 104.006 51.1222 104.006C49.747 104.006 48.7064 103.51 48.0002 102.516C47.3312 101.523 46.8481 100.345 46.5507 98.9834C46.2534 97.5851 46.0676 96.1683 45.9932 94.7332C45.9561 93.2981 45.9189 92.1573 45.8817 91.3109C43.2058 91.7525 40.567 92.1389 37.9653 92.4701C37.891 93.3165 37.7237 94.3652 37.4636 95.6164C37.2406 96.8675 36.8689 98.0819 36.3486 99.2594C35.8654 100.4 35.215 101.394 34.3974 102.24C33.6169 103.086 32.6505 103.51 31.4984 103.51C30.6064 103.51 29.9002 103.197 29.3799 102.571C28.8968 101.909 28.5251 101.136 28.2649 100.253C28.0048 99.3698 27.8375 98.4683 27.7632 97.5483C27.726 96.5915 27.7074 95.8004 27.7074 95.1748C27.7074 93.0773 27.8747 91.0166 28.2092 88.9926C28.5437 86.9319 28.9339 84.8896 29.3799 82.8657C29.6029 81.7985 29.9002 80.5474 30.2719 79.1122C30.6436 77.6771 31.0896 76.2051 31.6099 74.6964C32.1674 73.1509 32.7992 71.6421 33.5054 70.1702C34.2487 68.6614 35.0849 67.3183 36.0141 66.1407C36.9432 64.9632 38.0025 64.0064 39.1918 63.2705C40.3811 62.5345 41.7005 62.1665 43.15 62.1665C44.5623 62.1665 45.7888 62.4793 46.8295 63.1049C47.8701 63.7304 48.7807 64.5584 49.5612 65.5888C50.3417 66.6191 50.9921 67.7967 51.5124 69.1214C52.0328 70.4094 52.4601 71.7341 52.7946 73.0957C53.1663 74.4204 53.4636 75.7268 53.6866 77.0147C53.9468 78.3027 54.1698 79.4434 54.3556 80.437C54.8388 82.8289 55.2476 85.2576 55.5821 87.7231C55.9166 90.1518 56.0839 92.5989 56.0839 95.0644ZM45.3242 81.6513C45.3242 81.2097 45.2871 80.4922 45.2127 79.4986C45.1756 78.4682 45.0641 77.4563 44.8782 76.4627C44.6924 75.4324 44.3951 74.5308 43.9862 73.758C43.6146 72.9485 43.0943 72.5437 42.4253 72.5437C42.0536 72.5437 41.7005 72.8013 41.366 73.3165C41.0315 73.7948 40.7342 74.4204 40.474 75.1932C40.2139 75.9291 39.9723 76.7571 39.7493 77.6771C39.5635 78.597 39.3962 79.4802 39.2476 80.3266C39.0989 81.173 38.9874 81.9457 38.9131 82.6449C38.8387 83.3073 38.783 83.7856 38.7458 84.08C40.9758 83.896 43.1686 83.62 45.3242 83.2521V81.6513Z"/><path fill="#F9F9F9" d="M85.5753 73.6476C85.5753 75.6348 85.1293 77.5851 84.2373 79.4986C83.3824 81.4121 82.2303 83.1417 80.7808 84.6872C79.3313 86.1959 77.6774 87.4471 75.8191 88.4406C73.9608 89.3974 72.0467 89.931 70.0769 90.0414C70.0398 90.7038 70.0026 91.5501 69.9655 92.5805C69.9655 93.5741 69.9097 94.6228 69.7982 95.7268C69.6867 96.8307 69.5194 97.9347 69.2965 99.0386C69.1106 100.143 68.8133 101.136 68.4045 102.019C68.0328 102.902 67.531 103.62 66.8992 104.172C66.3046 104.724 65.5612 105 64.6693 105C63.6286 105 62.7924 104.65 62.1605 103.951C61.5659 103.289 61.1013 102.479 60.7668 101.523C60.4695 100.566 60.265 99.5722 60.1535 98.5419C60.0421 97.4747 59.9677 96.5731 59.9306 95.8371C59.8562 94.77 59.8005 93.7212 59.7633 92.6909C59.7633 91.6605 59.7633 90.6118 59.7633 89.5446C59.7633 89.0662 59.7633 88.1831 59.7633 86.8951C59.7633 85.5704 59.7633 84.08 59.7633 82.4241C59.8005 80.7314 59.8376 78.9834 59.8748 77.1803C59.912 75.3404 59.9677 73.6476 60.0421 72.1021C60.1164 70.5198 60.1907 69.1766 60.2651 68.0727C60.3766 66.9687 60.5066 66.3247 60.6553 66.1407C60.6925 66.1039 60.804 66.0303 60.9898 65.92C61.1756 65.7728 61.3801 65.644 61.6031 65.5336C61.826 65.3864 62.0304 65.2576 62.2163 65.1472C62.4021 65.0368 62.5322 64.9632 62.6065 64.9264C64.3162 63.9696 66.1931 63.1417 68.2372 62.4425C70.2814 61.7433 72.3069 61.3937 74.3139 61.3937C76.0235 61.3937 77.5659 61.7433 78.9411 62.4425C80.3534 63.1049 81.5427 64.0064 82.509 65.1472C83.5125 66.2511 84.2744 67.5575 84.7948 69.0662C85.3151 70.5382 85.5753 72.0653 85.5753 73.6476ZM75.9306 74.9172C75.9306 74.1812 75.7448 73.5372 75.3731 72.9853C75.0386 72.4333 74.4625 72.1573 73.6449 72.1573C72.9387 72.1573 72.2326 72.3045 71.5264 72.5989C70.8203 72.8565 70.1699 73.1325 69.5752 73.4269C69.6867 74.7148 69.7796 75.966 69.854 77.1803C69.9654 78.3947 69.984 79.6458 69.9097 80.9337C70.5044 80.6394 71.1548 80.3082 71.8609 79.9402C72.5671 79.5354 73.2175 79.0938 73.8121 78.6154C74.4068 78.1371 74.9086 77.6035 75.3174 77.0147C75.7262 76.3891 75.9306 75.69 75.9306 74.9172Z"/><path fill="#F9F9F9" d="M113.952 95.0644C113.952 95.8004 113.877 96.6835 113.729 97.7139C113.617 98.7442 113.376 99.7378 113.004 100.695C112.632 101.615 112.131 102.406 111.499 103.068C110.867 103.694 110.031 104.006 108.99 104.006C107.615 104.006 106.574 103.51 105.868 102.516C105.199 101.523 104.716 100.345 104.419 98.9834C104.121 97.5851 103.935 96.1683 103.861 94.7332C103.824 93.2981 103.787 92.1573 103.75 91.3109C101.074 91.7525 98.4348 92.1389 95.8331 92.4701C95.7588 93.3165 95.5916 94.3652 95.3314 95.6164C95.1084 96.8675 94.7367 98.0819 94.2164 99.2594C93.7332 100.4 93.0828 101.394 92.2652 102.24C91.4847 103.086 90.5184 103.51 89.3662 103.51C88.4742 103.51 87.7681 103.197 87.2477 102.571C86.7646 101.909 86.3929 101.136 86.1328 100.253C85.8726 99.3698 85.7053 98.4683 85.631 97.5483C85.5938 96.5915 85.5753 95.8004 85.5753 95.1748C85.5753 93.0773 85.7425 91.0166 86.077 88.9926C86.4115 86.9319 86.8017 84.8896 87.2477 82.8657C87.4707 81.7985 87.7681 80.5474 88.1397 79.1122C88.5114 77.6771 88.9574 76.2051 89.4777 74.6964C90.0352 73.1509 90.667 71.6421 91.3732 70.1702C92.1165 68.6614 92.9527 67.3183 93.8819 66.1407C94.8111 64.9632 95.8703 64.0064 97.0596 63.2705C98.2489 62.5345 99.5684 62.1665 101.018 62.1665C102.43 62.1665 103.657 62.4793 104.697 63.1049C105.738 63.7304 106.649 64.5584 107.429 65.5888C108.21 66.6191 108.86 67.7967 109.38 69.1214C109.901 70.4094 110.328 71.7341 110.662 73.0957C111.034 74.4204 111.331 75.7268 111.554 77.0147C111.815 78.3027 112.038 79.4434 112.223 80.437C112.707 82.8289 113.115 85.2576 113.45 87.7231C113.784 90.1518 113.952 92.5989 113.952 95.0644ZM103.192 81.6513C103.192 81.2097 103.155 80.4922 103.081 79.4986C103.043 78.4682 102.932 77.4563 102.746 76.4627C102.56 75.4324 102.263 74.5308 101.854 73.758C101.482 72.9485 100.962 72.5437 100.293 72.5437C99.9214 72.5437 99.5684 72.8013 99.2339 73.3165C98.8994 73.7948 98.602 74.4204 98.3419 75.1932C98.0817 75.9291 97.8401 76.7571 97.6172 77.6771C97.4313 78.597 97.264 79.4802 97.1154 80.3266C96.9667 81.173 96.8552 81.9457 96.7809 82.6449C96.7065 83.3073 96.6508 83.7856 96.6136 84.08C98.8436 83.896 101.036 83.62 103.192 83.2521V81.6513Z"/><path fill="#F9F9F9" d="M125.304 2.40361C117.334 1.36977 115.225 17.9105 122.808 18.897C130.263 19.868 133.145 3.42192 125.304 2.40361ZM110.017 0.0586003C109.898 0.0407156 109.78 0.0303541 109.657 0.019918C101.652 -0.65376 100.437 15.9812 108.054 16.625C115.425 17.249 117.467 1.19402 110.017 0.0586003ZM96.1722 9.80112C95.9378 9.75794 95.7007 9.73099 95.4625 9.72047C87.4425 9.36419 87.013 26.0542 94.6442 26.3961C101.912 26.7224 103.268 11.0974 96.1722 9.80112ZM135.793 16.7673C127.898 15.269 124.632 31.6212 132.144 33.0499C139.528 34.455 143.561 18.2426 135.793 16.7673ZM113.506 22.7128C105.36 21.5032 110.179 30.8783 94.9925 33.2538C83.2219 35.0947 87.9909 47.5169 97.5008 49.1824C102.72 50.0968 105.296 46.3328 109.569 47.0821C114.421 47.9322 114.171 51.661 121.272 52.9052C130.34 54.4931 137.569 44.0519 127.859 38.4261C115.496 31.2634 122.404 24.3192 113.906 22.7814C113.77 22.757 113.635 22.732 113.506 22.7128Z"/></svg>